<?xml version="1.0" standalone="no"?>
<!DOCTYPE svg PUBLIC "-//W3C//DTD SVG 20010904//EN"
 "http://www.w3.org/TR/2001/REC-SVG-20010904/DTD/svg10.dtd">
<svg version="1.0" xmlns="http://www.w3.org/2000/svg"
 width="960.000000pt" height="960.000000pt" viewBox="0 0 960.000000 960.000000"
 preserveAspectRatio="xMidYMid meet">
<metadata>
Created by potrace 1.14, written by Peter Selinger 2001-2017
</metadata>
<g transform="translate(0.000000,960.000000) scale(0.100000,-0.100000)"
fill="#000000" stroke="none">
<path d="M2085 9421 c-3 -2 -5 -960 -5 -2129 l0 -2125 23 25 c12 14 51 61 87
104 35 44 67 81 70 84 7 7 56 66 105 125 22 27 47 56 55 65 8 8 31 36 50 60
19 25 41 52 50 60 8 8 44 51 80 95 35 44 67 82 70 85 3 3 62 73 130 155 69 83
129 155 135 161 5 6 24 28 40 49 17 21 37 45 46 54 9 9 83 97 165 196 82 99
157 189 168 200 10 11 30 36 45 55 14 19 33 41 41 50 8 9 31 35 50 59 19 23
44 53 55 65 11 13 36 42 55 66 19 23 40 48 45 54 8 9 105 125 180 215 11 14
27 32 35 41 8 9 33 38 55 65 22 28 50 61 61 75 35 41 97 114 124 147 14 16 43
52 65 78 22 26 48 57 58 69 17 21 44 53 114 136 21 25 54 65 73 89 19 23 44
53 55 65 37 42 70 81 140 166 38 47 78 94 88 105 11 11 31 36 46 55 14 19 31
40 37 45 6 6 44 51 85 100 41 50 76 92 79 95 3 3 21 25 41 50 20 25 51 61 68
80 l31 35 -28 22 c-15 13 -31 23 -35 23 -4 0 -32 16 -62 35 -30 19 -55 32 -55
29 0 -3 -12 3 -27 14 -88 61 -500 243 -718 317 -44 15 -87 30 -95 33 -8 3 -19
6 -25 8 -5 1 -50 14 -100 29 -49 14 -101 29 -115 31 -14 3 -50 11 -80 19 -30
8 -68 17 -85 20 -16 3 -64 12 -105 21 -41 8 -90 16 -109 19 -19 2 -48 6 -65 9
-103 15 -185 25 -246 30 -25 2 -88 7 -140 11 -103 8 -898 14 -905 6z"/>
<path d="M6180 7801 c0 -4 -9 -19 -21 -32 -12 -13 -40 -46 -63 -73 -22 -27
-51 -61 -63 -75 -13 -14 -26 -31 -30 -36 -5 -6 -24 -29 -43 -51 -36 -41 -43
-50 -120 -144 -25 -30 -50 -60 -56 -67 -7 -7 -90 -106 -185 -220 -96 -114
-176 -210 -179 -213 -5 -4 -179 -211 -235 -279 -67 -81 -99 -119 -119 -141
-12 -14 -67 -79 -121 -145 -55 -66 -102 -122 -105 -125 -3 -3 -27 -32 -55 -65
-27 -33 -54 -65 -60 -71 -5 -6 -25 -29 -43 -52 -19 -23 -41 -50 -50 -61 -10
-10 -35 -40 -57 -66 -22 -26 -47 -56 -55 -65 -8 -10 -28 -34 -45 -55 -16 -20
-39 -47 -50 -59 -11 -12 -36 -43 -57 -67 -20 -24 -44 -54 -55 -65 -34 -41 -91
-109 -204 -244 -61 -74 -116 -136 -120 -138 -5 -2 -9 -8 -9 -14 0 -6 -8 -16
-17 -23 -16 -12 -14 -17 23 -66 23 -30 61 -81 84 -114 24 -33 47 -61 52 -63 4
-2 8 -10 8 -18 0 -8 3 -14 8 -14 4 0 21 -21 37 -45 17 -25 33 -45 38 -45 4 0
7 -4 7 -10 0 -9 74 -111 113 -154 9 -11 17 -23 17 -26 0 -4 9 -18 21 -31 12
-13 35 -44 52 -69 17 -25 34 -47 37 -50 4 -3 26 -32 50 -65 24 -33 83 -113
132 -177 48 -65 88 -122 88 -128 0 -5 3 -10 8 -10 4 0 18 -17 32 -38 29 -44
33 -49 63 -83 12 -14 67 -88 122 -164 55 -76 112 -152 128 -170 15 -18 27 -37
27 -43 0 -6 3 -12 8 -14 6 -3 73 -88 124 -159 9 -13 73 -100 142 -192 69 -93
126 -171 126 -174 0 -3 6 -11 13 -17 7 -6 45 -54 83 -106 38 -52 74 -102 81
-110 7 -8 35 -46 63 -85 28 -38 56 -77 63 -85 7 -8 28 -37 47 -65 19 -27 38
-52 41 -55 3 -3 37 -48 75 -100 38 -52 74 -102 81 -110 7 -8 61 -80 120 -160
59 -80 113 -151 120 -158 7 -7 13 -18 13 -23 0 -25 26 0 89 84 78 105 245 358
282 427 13 25 26 47 29 50 12 12 156 297 202 400 31 69 114 268 118 285 1 2
19 54 40 115 22 60 36 110 32 110 -4 0 -2 4 4 8 5 4 15 27 21 52 6 25 23 90
38 145 15 55 28 107 30 115 16 72 36 166 40 192 11 67 18 104 22 123 7 33 14
87 18 135 2 25 5 45 6 45 2 0 5 39 14 150 3 50 8 110 11 135 8 84 3 635 -6
635 -1 0 -3 25 -5 55 -6 83 -13 141 -35 285 -7 44 -13 90 -15 102 -2 11 -6 29
-9 40 -3 10 -8 36 -11 58 -13 89 -97 412 -124 480 -5 11 -14 38 -20 60 -20 63
-81 225 -107 282 -13 28 -24 54 -24 57 0 17 -167 361 -226 466 -81 142 -75
133 -118 200 -16 25 -41 63 -55 85 -14 22 -29 42 -33 43 -5 2 -8 8 -8 13 0 10
-118 175 -175 244 -14 17 -49 60 -78 97 -49 63 -77 88 -77 69z"/>
<path d="M2954 3944 c-22 -26 -44 -52 -49 -58 -6 -6 -30 -36 -55 -66 -25 -30
-47 -57 -50 -60 -8 -8 -62 -72 -98 -118 -19 -22 -44 -52 -55 -65 -12 -14 -29
-33 -37 -43 -64 -82 -416 -500 -422 -502 -5 -2 -8 -8 -8 -13 0 -5 -8 -17 -17
-27 -10 -10 -33 -35 -51 -55 l-32 -37 2 -1362 3 -1363 375 1 c478 0 644 9 920
49 14 2 45 7 70 10 25 3 53 8 63 11 10 3 33 7 50 9 38 5 176 34 197 42 8 3 24
7 35 8 27 4 259 70 313 89 23 8 46 16 50 17 19 4 39 11 54 20 10 5 25 9 33 9
8 0 23 4 33 10 9 5 53 23 97 40 107 42 211 89 370 167 130 64 282 150 395 224
25 16 53 32 62 35 23 8 16 22 -73 143 -43 58 -88 121 -101 138 -13 18 -31 43
-40 55 -79 105 -298 408 -298 413 0 3 -13 20 -30 38 -16 18 -30 37 -30 44 0 6
-3 13 -7 15 -9 4 -153 195 -153 203 0 3 -8 14 -17 24 -10 10 -30 36 -45 57
-37 53 -126 176 -141 194 -7 9 -25 36 -42 60 -16 25 -40 56 -52 70 -13 14 -23
28 -23 32 0 5 -8 16 -17 27 -10 10 -34 41 -53 70 -19 28 -45 63 -58 78 -12 16
-39 53 -59 83 -21 30 -40 57 -43 60 -3 3 -42 55 -85 115 -44 61 -83 115 -87
120 -12 16 -66 90 -168 230 -52 72 -97 132 -100 135 -3 3 -9 13 -15 22 -21 36
-299 413 -307 416 -4 2 -8 8 -8 13 0 8 -85 126 -100 139 -3 3 -16 22 -29 43
-12 20 -24 37 -26 37 -2 0 -20 -21 -41 -46z"/>
</g>
</svg>
