<svg width="200" height="200" viewBox="0 0 200 200" fill="none" xmlns="http://www.w3.org/2000/svg">
<path d="M44.7462 79.4351L20.9706 75.9463C19.7898 75.7731 18.973 74.6755 19.1462 73.4943L22.635 49.7187C22.8082 48.5379 23.9058 47.7211 25.087 47.8943L48.8626 51.3831C50.0434 51.5563 50.8602 52.6539 50.687 53.8351L47.1982 77.6107C47.0246 78.7915 45.927 79.6083 44.7462 79.4351Z" fill="#F5F5F5"/>
<path d="M36.2776 54.387C31.5096 53.6874 27.0348 57.2738 26.2828 62.3978C25.5308 67.5218 28.7868 72.2426 33.5548 72.9422C38.3228 73.6418 42.7976 70.0554 43.5496 64.9314C44.3016 59.8078 41.0456 55.0866 36.2776 54.387ZM36.414 69.719C35.6724 70.7778 34.6196 70.8826 33.9028 70.7774C33.0928 70.6586 31.7096 69.7702 31.5388 68.2262C31.3768 66.7606 31.5188 65.0906 31.8156 63.0686C32.12 60.9942 32.6744 58.8134 33.3916 57.5302C34.1088 56.247 35.2488 55.8994 36.0388 56.015C36.7916 56.1254 37.9956 56.6794 38.3412 58.6214C38.6036 60.0958 38.4356 61.8214 38.1172 63.9934C37.7844 66.2598 37.3076 68.443 36.414 69.719Z" fill="white"/>
<path d="M165.617 38.4206C165.353 37.8242 165.293 37.1642 165.118 36.5382C165.025 36.2018 164.867 35.8438 164.552 35.695C164.343 35.597 164.096 35.6098 163.875 35.5418C163.078 35.3034 162.861 34.1918 162.107 33.8466C161.869 33.7402 161.604 33.719 161.349 33.689C160.34 33.5698 159.296 33.2206 158.661 32.4282C158.453 32.1726 158.295 31.8702 158.039 31.6614C157.779 31.4526 157.379 31.3634 157.128 31.5762C157.341 32.0022 157.549 32.4282 157.758 32.8498C157.95 33.233 158.146 33.6294 158.465 33.9102C158.789 34.1954 159.266 34.3446 159.653 34.1658C159.781 34.1062 159.909 34.0082 160.054 34.0254C160.156 34.0382 160.245 34.1106 160.314 34.1914C160.863 34.8002 160.684 35.8098 160.148 36.4318C159.615 37.0494 158.823 37.373 158.061 37.6754C157.789 37.7818 157.499 37.8926 157.209 37.8414C156.681 37.7434 156.4 37.1686 156.247 36.653C155.902 35.5114 155.736 34.2722 155.029 33.3094C154.803 33.007 154.522 32.7302 154.386 32.3766C154.241 31.9934 154.275 31.5462 154.045 31.2094C153.807 30.8558 153.3 30.6514 153.266 30.2254C153.245 29.9274 153.491 29.663 153.764 29.5354C154.037 29.4034 154.343 29.365 154.625 29.2502C154.735 29.2034 154.859 29.1222 154.863 29.003C154.863 28.8242 154.616 28.7518 154.552 28.5854C154.484 28.3978 154.676 28.2234 154.757 28.0402C154.931 27.6226 154.497 27.201 154.075 27.031C153.658 26.8606 153.151 26.737 152.955 26.3282C152.865 26.141 152.857 25.9238 152.819 25.7194C152.721 25.2042 152.341 24.7058 151.822 24.6206C151.298 24.5354 150.719 24.9998 150.804 25.5194C150.855 25.8046 151.068 26.0262 151.183 26.2902C151.302 26.5542 151.268 26.9462 150.996 27.0314C150.549 27.1678 150.118 26.3498 149.744 26.631C149.897 27.155 150.046 27.6786 150.199 28.207C149.612 28.505 148.909 27.9642 148.657 27.351C148.406 26.7418 148.397 26.0434 148.099 25.4554C147.801 24.8634 146.996 24.425 146.485 24.8422C146.459 25.6002 147.461 25.907 147.903 26.5202C148.223 26.963 148.176 27.683 147.703 27.9638C147.235 28.245 146.489 27.755 146.668 27.2398C146.732 27.061 146.881 26.9118 146.898 26.7202C146.915 26.4818 146.715 26.2898 146.532 26.1366C146.246 25.8938 145.961 25.6554 145.676 25.4166C145.493 25.2634 145.297 25.1014 145.067 25.0334C144.479 24.863 143.891 25.3402 143.58 25.8638C143.269 26.3918 143.095 27.0094 142.665 27.4482C142.047 28.087 140.876 28.1254 140.297 27.4566C139.713 26.7878 140.011 25.5358 140.867 25.293C141.191 25.2034 141.6 25.2122 141.771 24.9266C142.069 24.4198 141.217 23.7722 141.511 23.2614C141.736 22.8698 142.333 23.0486 142.767 22.9166C143.197 22.7846 143.44 22.3502 143.695 21.9754C143.947 21.605 144.343 21.2302 144.786 21.3278C144.752 21.0682 144.718 20.787 144.833 20.5526C144.947 20.3142 145.271 20.1606 145.484 20.3142C145.267 20.6718 145.527 21.1702 145.906 21.349C146.285 21.5278 146.728 21.4854 147.145 21.4386C147.563 21.3874 148.086 21.2342 148.12 20.8166C148.133 20.6802 148.082 20.5354 148.133 20.4078C148.316 19.9094 149.236 20.5954 149.589 20.195C149.794 19.9862 149.568 19.6158 149.283 19.5478C149.001 19.4754 148.708 19.5818 148.418 19.5902C148.129 19.603 147.775 19.4498 147.762 19.1602C147.749 18.875 148.069 18.6702 148.103 18.3894C148.158 17.9122 147.349 17.789 147.064 18.1766C146.783 18.5642 146.881 19.0966 146.966 19.5694C147.055 20.0422 147.098 20.6002 146.749 20.9322C146.599 21.1578 146.212 21.0386 146.084 20.8002C145.952 20.5618 145.982 20.2718 145.961 20.0038C145.939 19.731 145.82 19.4246 145.556 19.3522C145.373 19.301 145.177 19.3906 144.99 19.4162C144.249 19.5058 143.733 18.5474 143.967 17.8406C144.197 17.1294 144.87 16.6734 145.522 16.3114C145.999 16.0474 146.591 15.8002 147.064 16.0686C147.285 16.1922 147.439 16.405 147.656 16.533C148.031 16.7546 148.495 16.6734 148.925 16.6822C149.602 16.699 150.271 16.959 150.778 17.4022C150.969 17.5766 151.148 17.8666 150.999 18.075C150.837 18.2966 150.373 18.3434 150.454 18.603C150.957 18.769 151.557 18.3814 151.613 17.8578C151.859 17.9686 152.039 18.2198 152.06 18.4882C152.601 17.9386 153.64 18.0198 154.083 18.6542C154.202 18.8202 154.287 19.0206 154.458 19.1354C154.628 19.2462 154.926 19.1906 154.947 18.9906C154.956 18.9266 154.935 18.863 154.913 18.803C154.811 18.5134 154.705 18.2282 154.603 17.9426C154.999 17.7298 155.467 18.0618 155.735 18.4198C156.732 19.753 157.443 18.9522 158.849 19.1694C159.799 19.3142 160.216 19.9234 160.753 20.6602C162.397 22.9262 164.569 24.783 166.064 27.151C166.222 27.3982 166.367 27.6494 166.503 27.9046C166.477 27.8406 166.456 27.777 166.43 27.713C165.843 26.167 165.114 24.689 164.258 23.2962C164.075 22.9982 163.888 22.7042 163.696 22.4146C163.577 22.2358 163.453 22.0526 163.329 21.8778C163.172 21.6478 163.006 21.4262 162.839 21.205C162.707 21.0262 162.575 20.8514 162.439 20.681C162.345 20.5618 162.247 20.4426 162.149 20.3234C162.047 20.187 161.936 20.055 161.817 19.923L161.459 19.5098C161.425 19.4674 161.387 19.4246 161.344 19.3822C161.221 19.2374 161.089 19.097 160.957 18.9562C160.948 18.9394 160.935 18.9266 160.918 18.9138C160.884 18.8754 160.846 18.837 160.807 18.799C160.701 18.6798 160.586 18.5646 160.475 18.4498C160.292 18.2622 160.105 18.075 159.913 17.8962C159.755 17.7386 159.593 17.5894 159.427 17.4406C159.283 17.3086 159.138 17.1766 158.989 17.0486C158.844 16.921 158.699 16.7974 158.55 16.6738C158.371 16.5206 158.188 16.3714 158 16.2222H157.996C157.481 15.809 156.948 15.4174 156.403 15.051C156.267 14.9574 156.135 14.8678 155.998 14.7786C155.862 14.685 155.721 14.5998 155.585 14.5146C155.445 14.4294 155.308 14.3402 155.167 14.259C155.027 14.1694 154.886 14.0886 154.746 14.0078C154.631 13.9398 154.52 13.8758 154.405 13.8162C154.345 13.7778 154.29 13.7482 154.23 13.7182C153.987 13.5818 153.74 13.4498 153.493 13.3266C153.37 13.2626 153.246 13.199 153.119 13.139C152.961 13.0582 152.799 12.9814 152.637 12.909C152.616 12.8962 152.591 12.8834 152.565 12.875C152.42 12.807 152.275 12.7386 152.126 12.675C151.917 12.5854 151.709 12.4962 151.5 12.411C151.262 12.313 151.023 12.215 150.781 12.1258C150.512 12.0238 150.244 11.9258 149.971 11.8362C149.699 11.7426 149.422 11.653 149.145 11.5678C148.868 11.4826 148.591 11.4058 148.31 11.3294C147.757 11.1802 147.194 11.0482 146.628 10.9334C146.619 10.929 146.607 10.929 146.598 10.925C146.381 10.8826 146.164 10.8398 145.947 10.8058C145.929 10.8014 145.917 10.7974 145.904 10.7974C145.81 10.7802 145.712 10.7634 145.614 10.7506C145.209 10.6826 144.801 10.627 144.387 10.5802C144.341 10.5718 144.289 10.5674 144.238 10.5634C144.119 10.5462 144 10.5378 143.876 10.525C143.604 10.4994 143.331 10.4782 143.054 10.461C142.769 10.4398 142.479 10.427 142.19 10.4186C141.887 10.4058 141.585 10.4014 141.283 10.4014C140.482 10.4014 139.69 10.4354 138.906 10.5078C138.718 10.5206 138.535 10.5378 138.352 10.559C138.161 10.5802 137.969 10.6014 137.777 10.627C137.586 10.6526 137.394 10.6782 137.207 10.7078C137.015 10.7374 136.827 10.7674 136.636 10.8014C136.474 10.827 136.308 10.8566 136.146 10.891C135.746 10.9678 135.35 11.053 134.958 11.1466C134.775 11.189 134.591 11.2362 134.408 11.287C134.225 11.3338 134.042 11.385 133.863 11.4362C133.561 11.5214 133.267 11.615 132.973 11.7086H132.969C132.73 11.7894 132.487 11.8706 132.253 11.9514C132.249 11.9514 132.24 11.9554 132.236 11.9598C131.993 12.045 131.759 12.1346 131.52 12.2282C131.507 12.2326 131.495 12.2366 131.482 12.241C131.265 12.3262 131.047 12.4158 130.835 12.505C130.566 12.6158 130.302 12.735 130.042 12.8542C129.821 12.9566 129.603 13.0586 129.391 13.165C129.161 13.2798 128.931 13.395 128.705 13.5142C128.697 13.5186 128.688 13.5226 128.679 13.527C128.462 13.6418 128.245 13.7614 128.032 13.8846C127.811 14.0082 127.593 14.1358 127.376 14.2722H127.372C127.167 14.3958 126.967 14.519 126.767 14.647C126.69 14.6938 126.618 14.745 126.541 14.7962C126.328 14.9326 126.124 15.073 125.915 15.2178C125.66 15.3926 125.413 15.5754 125.166 15.7586C124.949 15.9206 124.735 16.0866 124.527 16.2526C123.322 17.215 122.197 18.2758 121.179 19.4258C120.817 19.8262 120.477 20.235 120.145 20.6526C119.863 21.0102 119.591 21.3726 119.331 21.7474C119.399 21.739 119.467 21.7302 119.535 21.7262C119.919 21.6966 120.323 21.7094 120.668 21.543C120.988 21.3854 121.213 21.0998 121.503 20.8958C122.244 20.3678 123.458 20.2698 123.658 19.3838C123.726 19.0858 123.645 18.7618 123.756 18.4766C123.965 17.9442 124.676 17.8674 125.247 17.8762C125.49 17.8762 125.775 17.9102 125.886 18.123C125.967 18.2722 125.92 18.4594 125.86 18.617C125.511 19.6134 124.804 20.4742 123.905 21.019C123.164 21.4706 122.197 21.8198 121.993 22.663C122.095 22.9486 122.615 22.927 122.657 23.2254C122.687 23.4638 122.381 23.5874 122.27 23.8006C122.108 24.1114 122.479 24.4906 122.832 24.4734C123.186 24.4566 123.479 24.201 123.739 23.9622C124.515 23.2426 125.328 22.4674 125.609 21.445C125.728 21.0234 125.771 20.5294 126.111 20.2482C126.516 19.9162 127.24 20.1462 127.376 20.653C127.713 20.4658 128.237 20.325 128.411 20.6742C128.471 20.7978 128.454 20.9426 128.484 21.0746C128.595 21.6198 129.34 21.8666 129.417 22.4162C129.506 23.051 128.693 23.3786 128.058 23.4766C127.483 23.5658 126.908 23.6554 126.333 23.749C126.081 23.7874 125.821 23.8298 125.617 23.979C125.413 24.1322 125.285 24.4218 125.404 24.6478C125.473 24.7714 125.605 24.8522 125.702 24.9546C126.179 25.4314 125.787 26.4154 125.115 26.437C124.885 26.4454 124.659 26.3602 124.429 26.3518C123.747 26.3218 123.207 26.9226 122.883 27.523C122.559 28.1234 122.317 28.8094 121.771 29.2182C120.894 29.8782 119.382 29.725 118.956 30.7386C118.786 31.1474 118.875 31.6074 118.943 32.0462C119.012 32.4806 119.041 32.9662 118.786 33.3282C118.535 33.6858 117.879 33.7626 117.691 33.3622C117.611 33.1874 117.636 32.983 117.666 32.7958C117.768 32.1654 117.866 31.535 117.964 30.905C118.036 30.4362 118.1 29.9126 117.823 29.529C117.436 28.9922 116.567 29.0434 116.064 29.4738C115.566 29.9042 115.357 30.577 115.217 31.2202C115.114 31.6974 114.995 32.3702 114.731 32.9154C114.641 33.4434 114.569 33.9802 114.514 34.521C114.459 35.0746 114.42 35.6242 114.399 36.1862C114.467 36.1306 114.539 36.0626 114.616 35.9818C114.885 35.705 115.425 34.5338 115.911 35.1086C116.035 35.2534 116.039 35.4878 115.919 35.641C115.77 35.8326 115.472 35.8754 115.357 36.0838C115.217 36.331 115.413 36.6374 115.643 36.7994C115.873 36.9654 116.154 37.0678 116.315 37.3022C116.626 37.7494 116.328 38.4266 116.631 38.8822C116.89 39.2742 117.444 39.2994 117.917 39.3506C117.972 39.359 118.023 39.3678 118.079 39.3762C118.211 38.4394 118.65 37.6766 119.927 37.387C121.691 36.9866 124.008 38.4474 125 39.7766C126.107 41.263 126.631 43.367 128.326 44.1126C129.54 44.645 131.265 44.4534 131.857 45.6418C132.385 46.7066 131.465 47.9034 131.325 49.0834C131.235 49.863 131.491 50.6378 131.55 51.4174C131.606 52.201 131.375 53.1126 130.664 53.4406C130.268 53.6194 129.77 53.5982 129.45 53.8962C128.884 54.433 129.348 55.5402 128.781 56.077C128.581 56.2646 128.304 56.3326 128.061 56.4562C126.788 57.0994 126.822 58.9734 127.414 60.2722C127.435 60.319 127.457 60.3618 127.478 60.4086C129.361 61.5374 131.388 62.4402 133.531 63.079C135.984 63.8242 138.586 64.2206 141.282 64.2206C145.844 64.2206 150.145 63.0834 153.911 61.0774H153.915C154.733 60.6386 155.529 60.1618 156.296 59.6422C157.484 58.8458 158.6 57.9558 159.639 56.9846C160.359 56.3118 161.045 55.6002 161.683 54.8506C162.135 54.331 162.561 53.7902 162.97 53.2362C163.179 52.951 163.383 52.6654 163.575 52.3718C164.162 51.5114 164.699 50.613 165.18 49.6842C165.879 48.347 166.462 46.9414 166.922 45.4846C167.395 44.015 167.74 42.4902 167.949 40.923C168.029 40.3182 168.093 39.705 168.136 39.0874C167.842 39.3726 167.459 39.577 167.054 39.5686C166.409 39.5582 165.877 39.017 165.617 38.4206Z" fill="#F5F5F5"/>
<path d="M134.858 17.4427C134.325 17.7615 134.041 18.3631 133.63 18.8287C133.219 19.2943 132.481 19.6263 131.995 19.2387C131.762 19.0523 131.656 18.7443 131.63 18.4467C131.592 18.0191 131.695 17.5799 131.92 17.2135C132.152 16.8359 132.505 16.5383 132.702 16.1411C132.898 15.7435 132.858 15.1619 132.456 14.9755C132.238 14.8747 131.964 14.9143 131.771 14.7719C131.424 14.5163 131.673 13.9123 132.076 13.7595C132.479 13.6071 132.926 13.7251 133.356 13.7527C134.916 13.8523 136.063 12.8307 137.236 11.9823C138.148 11.3223 140.091 10.5431 141.146 11.2171C141.568 11.4859 141.732 12.1775 141.335 12.4815C141.158 12.6175 140.913 12.6479 140.748 12.7983C140.549 12.9787 140.521 13.2755 140.408 13.5187C140.112 14.1499 139.261 14.3795 138.987 15.0203C138.822 15.4063 138.896 15.8859 138.642 16.2199C138.44 16.4843 138.09 16.5779 137.767 16.6547C137.089 16.8159 136.41 16.9771 135.732 17.1383C135.431 17.2099 135.124 17.2839 134.858 17.4427Z" fill="#EBEBEB"/>
<path d="M153.045 50.5704C152.37 51.5872 152.247 52.8584 152.06 54.0644C151.873 55.2704 151.551 56.5524 150.624 57.3464C149.697 58.1408 147.995 58.0936 147.485 56.9848C147.208 56.3828 147.35 55.6732 147.199 55.0276C147.002 54.1872 146.333 53.5388 146.015 52.736C145.745 52.0512 145.744 51.2948 145.722 50.5588C145.601 46.5368 144.62 42.3392 141.882 39.3912C141.546 39.0292 141.164 38.6764 140.686 38.5492C140.118 38.3984 139.469 38.6224 139.115 39.0912C138.895 39.3824 138.782 39.7536 138.513 39.9996C137.927 40.534 136.906 40.1512 136.515 39.4616C136.124 38.7724 136.178 37.9276 136.244 37.138C136.325 36.1588 136.406 35.1796 136.487 34.2004C136.529 33.6884 136.587 33.1384 136.923 32.7496C137.401 32.1968 138.258 32.1708 138.843 31.7328C139.61 31.1584 139.712 30.0628 140.195 29.2356C140.679 28.4084 142.192 28.0588 142.416 28.9904C144.017 25.5644 147.554 30.6544 149.658 30.2716C150.269 30.1604 150.865 29.8672 151.48 29.9532C152.566 30.1052 153.127 31.3016 153.496 32.3336C154.109 34.0472 154.723 35.7604 155.336 37.474C155.569 38.1268 155.871 38.8524 156.517 39.1028C157.013 39.2948 157.588 39.1484 158.088 39.33C159.408 39.8104 158.979 41.8876 157.917 42.8068C156.855 43.7256 155.363 44.3056 154.859 45.6164C154.478 46.604 154.782 47.7608 154.372 48.7368C154.079 49.4352 153.463 49.9396 153.045 50.5704Z" fill="#EBEBEB"/>
<path d="M158.055 51.6869C157.621 51.7477 157.11 51.5337 156.78 51.8221C156.587 51.9905 156.545 52.2665 156.468 52.5105C156.362 52.8489 156.159 53.1693 155.854 53.3501C155.549 53.5309 155.134 53.5461 154.851 53.3317C154.568 53.1177 154.482 52.6609 154.713 52.3921C154.818 52.2697 154.97 52.1969 155.087 52.0861C155.663 51.5421 155.269 50.5329 155.706 49.8861C155.964 49.5049 156.371 49.1177 156.654 48.7313C156.872 48.4341 156.952 48.1985 157.353 48.1197C159.108 47.7741 159.901 51.4285 158.055 51.6869Z" fill="#EBEBEB"/>
<g opacity="0.6">
<path d="M126.303 59.6621C126.53 59.8149 126.758 59.9641 126.99 60.1089C127.152 60.2113 127.314 60.3089 127.48 60.4069C127.314 60.3089 127.152 60.2109 126.99 60.1089C126.758 59.9637 126.53 59.8149 126.303 59.6621Z" fill="#263238"/>
</g>
<g opacity="0.6">
<path d="M114.401 36.189C114.396 36.2402 114.392 36.287 114.392 36.3382C114.386 36.4978 114.386 36.6614 114.384 36.8238C114.387 36.6614 114.386 36.4978 114.392 36.3382C114.392 36.287 114.396 36.2402 114.401 36.189Z" fill="#263238"/>
</g>
<path d="M117.889 44.3841C117.804 43.6133 118.059 42.8421 118.072 42.0629C118.08 41.5261 118.043 40.9597 118.034 40.4189C117.574 40.3977 117.114 40.3337 116.666 40.2273C116.573 40.2061 116.47 40.1761 116.415 40.0993C116.356 40.0185 116.364 39.9121 116.36 39.8141C116.326 39.2093 115.742 38.8089 115.218 38.5065C114.95 38.3489 114.677 38.1957 114.388 38.0977C114.388 38.1617 114.388 38.2213 114.392 38.2853C114.499 41.2793 115.095 44.1545 116.104 46.8249C116.564 48.0429 117.114 49.2229 117.748 50.3513C118.012 50.8409 118.302 51.3225 118.604 51.7949C118.979 52.3785 119.371 52.9493 119.792 53.4985C120.184 54.0265 120.602 54.5421 121.041 55.0361C121.641 55.7217 122.276 56.3733 122.944 56.9953C123.536 57.5489 124.154 58.0729 124.797 58.5713C123.328 54.6273 121.944 50.6025 119.431 47.2461C118.77 46.3685 118.012 45.4741 117.889 44.3841Z" fill="#EBEBEB"/>
<path d="M118.081 39.3755C118.025 39.3671 117.974 39.3583 117.919 39.3499C117.446 39.2987 116.892 39.2731 116.632 38.8815C116.33 38.4259 116.628 37.7487 116.317 37.3015C116.155 37.0671 115.874 36.9651 115.644 36.7987C115.414 36.6367 115.218 36.3303 115.359 36.0831C115.474 35.8743 115.772 35.8319 115.921 35.6403C116.04 35.4871 116.036 35.2527 115.913 35.1079C115.427 34.5331 114.886 35.7043 114.618 35.9811C114.541 36.0619 114.469 36.1299 114.401 36.1855V36.1899C114.396 36.2411 114.392 36.2879 114.392 36.3391C114.386 36.4987 114.386 36.6623 114.384 36.8247C114.381 36.9871 114.375 37.1483 114.375 37.3103C114.375 37.4423 114.373 37.4355 114.375 37.5671C114.377 37.6987 114.384 37.9683 114.388 38.0983C114.678 38.1963 114.95 38.3495 115.219 38.5071C115.743 38.8095 116.326 39.2099 116.36 39.8147C116.365 39.9127 116.356 40.0191 116.416 40.0999C116.471 40.1767 116.573 40.2063 116.667 40.2279C117.114 40.3343 117.574 40.3983 118.034 40.4195" fill="#EBEBEB"/>
<path d="M118.033 40.4178C118.042 40.9586 118.08 41.525 118.072 42.0618C118.059 42.8414 117.803 43.6122 117.888 44.383C118.012 45.4734 118.77 46.3678 119.43 47.245C121.943 50.601 123.328 54.6262 124.797 58.5702H124.801C125.074 58.7874 125.351 58.9918 125.632 59.1922C125.853 59.3518 126.077 59.5086 126.303 59.6614C126.529 59.8142 126.758 59.9634 126.99 60.1082C127.152 60.2106 127.314 60.3086 127.48 60.4062C127.458 60.3594 127.437 60.3166 127.416 60.2698C126.824 58.9706 126.79 57.0966 128.063 56.4538C128.306 56.3302 128.582 56.2622 128.783 56.0746C129.349 55.5378 128.885 54.4306 129.452 53.8938C129.771 53.5958 130.27 53.617 130.666 53.4382C131.377 53.1102 131.607 52.199 131.552 51.415C131.492 50.6358 131.236 49.8606 131.326 49.081C131.467 47.901 132.386 46.7046 131.858 45.6394C131.266 44.451 129.542 44.6426 128.328 44.1102C126.632 43.365 126.108 41.261 125.001 39.7742C124.009 38.4454 121.692 36.9846 119.929 37.3846C118.651 37.6742 118.212 38.4366 118.08 39.3738" fill="#EBEBEB"/>
<path d="M116.066 29.4722C116.569 29.0422 117.438 28.991 117.825 29.5274C118.102 29.911 118.038 30.4346 117.966 30.9034C117.868 31.5338 117.77 32.1642 117.668 32.7942C117.638 32.9818 117.612 33.1862 117.693 33.3606C117.881 33.761 118.537 33.6842 118.788 33.3266C119.043 32.9646 119.014 32.479 118.945 32.0446C118.877 31.6058 118.788 31.1458 118.958 30.737C119.384 29.7234 120.896 29.8766 121.773 29.2166C122.319 28.8078 122.561 28.1222 122.885 27.5214C123.209 26.921 123.75 26.3202 124.431 26.3502C124.661 26.3586 124.887 26.4438 125.117 26.4354C125.789 26.4142 126.181 25.4302 125.704 24.953C125.606 24.8506 125.474 24.7698 125.406 24.6462C125.287 24.4206 125.415 24.131 125.619 23.9774C125.823 23.8282 126.083 23.7858 126.335 23.7474C126.91 23.6538 127.485 23.5642 128.06 23.475C128.695 23.377 129.508 23.049 129.419 22.4146C129.342 21.865 128.597 21.6182 128.486 21.073C128.456 20.941 128.473 20.7962 128.413 20.6726C128.239 20.3234 127.715 20.4638 127.378 20.6514C127.242 20.1446 126.518 19.9146 126.113 20.2466C125.773 20.5278 125.73 21.0218 125.611 21.4434C125.33 22.4654 124.516 23.2406 123.741 23.9606C123.482 24.199 123.188 24.4546 122.834 24.4718C122.481 24.489 122.11 24.1098 122.272 23.799C122.383 23.5862 122.689 23.4626 122.659 23.2238C122.617 22.9258 122.097 22.947 121.995 22.6614C122.199 21.8182 123.166 21.469 123.907 21.0174C124.806 20.4722 125.513 19.6118 125.862 18.6154C125.922 18.4578 125.969 18.2702 125.888 18.1214C125.777 17.9086 125.492 17.8746 125.249 17.8746C124.678 17.8662 123.967 17.9426 123.758 18.475C123.647 18.7602 123.729 19.0842 123.66 19.3822C123.46 20.2682 122.246 20.3662 121.505 20.8942C121.215 21.0986 120.99 21.3838 120.67 21.5414C120.325 21.7074 119.921 21.6946 119.537 21.7246C119.469 21.729 119.401 21.7374 119.333 21.7458C119.099 22.0714 118.873 22.4038 118.655 22.7414C118.438 23.079 118.228 23.4218 118.026 23.769C117.072 25.4002 116.288 27.1422 115.692 28.9738C115.483 29.6106 115.299 30.2578 115.139 30.915C114.979 31.5722 114.844 32.2386 114.733 32.9138C114.997 32.3686 115.117 31.6958 115.219 31.2186C115.359 30.5754 115.568 29.9026 116.066 29.4722Z" fill="#EBEBEB"/>
<path d="M168.139 39.081C168.139 39.081 167.461 39.575 167.057 39.5666C166.41 39.5582 165.877 39.017 165.617 38.421C165.353 37.8246 165.294 37.1646 165.119 36.5386C165.025 36.2022 164.868 35.8442 164.553 35.6954C164.344 35.5974 164.097 35.6102 163.875 35.5422C163.079 35.3038 162.862 34.1922 162.108 33.847C161.869 33.7406 161.605 33.7194 161.35 33.6894C160.341 33.5702 159.297 33.221 158.662 32.4286C158.453 32.173 158.296 31.8706 158.04 31.6618C157.78 31.453 157.38 31.3638 157.129 31.5766C157.341 32.0026 157.55 32.4286 157.759 32.8502C157.951 33.2334 158.147 33.6298 158.466 33.9106C158.789 34.1958 159.267 34.345 159.654 34.1662C159.782 34.1066 159.91 34.0086 160.055 34.0258C160.157 34.0386 160.246 34.111 160.315 34.1918C160.864 34.8006 160.685 35.8102 160.149 36.4322C159.616 37.0498 158.824 37.3734 158.062 37.6758C157.789 37.7822 157.5 37.893 157.21 37.8418C156.682 37.7438 156.401 37.169 156.248 36.6534C155.903 35.5118 155.737 34.2726 155.03 33.3098C154.804 33.0074 154.523 32.7306 154.387 32.377C154.242 31.9938 154.276 31.5466 154.046 31.2098C153.807 30.8562 153.301 30.6518 153.267 30.2258C153.245 29.9278 153.492 29.6634 153.765 29.5358C154.037 29.4038 154.344 29.3654 154.625 29.2506C154.736 29.2038 154.86 29.1226 154.864 29.0034C154.864 28.8246 154.617 28.7522 154.553 28.5858C154.485 28.3982 154.677 28.2238 154.757 28.0406C154.932 27.623 154.497 27.2014 154.076 27.0314C153.659 26.861 153.151 26.7374 152.956 26.3286C152.866 26.1414 152.858 25.9242 152.819 25.7198C152.721 25.2046 152.342 24.7062 151.823 24.621C151.299 24.5358 150.719 25.0002 150.805 25.5198C150.856 25.805 151.069 26.0266 151.184 26.2906C151.303 26.5546 151.269 26.9466 150.997 27.0318C150.549 27.1682 150.119 26.3502 149.745 26.6314C149.898 27.1554 150.047 27.679 150.2 28.2074C149.613 28.5054 148.91 27.9646 148.658 27.3514C148.407 26.7422 148.398 26.0438 148.1 25.4558C147.802 24.8638 146.997 24.4254 146.486 24.8426C146.46 25.6006 147.461 25.9074 147.904 26.5206C148.224 26.9634 148.177 27.6834 147.704 27.9642C147.235 28.2454 146.49 27.7554 146.669 27.2402C146.733 27.0614 146.882 26.9122 146.899 26.7206C146.916 26.4822 146.716 26.2902 146.533 26.137C146.247 25.8942 145.962 25.6558 145.677 25.417C145.493 25.2638 145.297 25.1018 145.067 25.0338C144.48 24.8634 143.892 25.3406 143.581 25.8642C143.27 26.3922 143.095 27.0098 142.665 27.4486C142.048 28.0874 140.877 28.1258 140.297 27.457C139.714 26.7882 140.012 25.5362 140.868 25.2934C141.192 25.2038 141.601 25.2126 141.771 24.927C142.069 24.4202 141.218 23.7726 141.511 23.2618C141.737 22.8702 142.333 23.049 142.768 22.917C143.198 22.785 143.441 22.3506 143.696 21.9758C143.947 21.6054 144.344 21.2306 144.787 21.3282C144.753 21.0686 144.719 20.7874 144.833 20.553C144.948 20.3146 145.272 20.161 145.485 20.3146C145.268 20.6722 145.528 21.1706 145.907 21.3494C146.286 21.5282 146.729 21.4858 147.146 21.439C147.563 21.3878 148.087 21.2346 148.121 20.817C148.134 20.6806 148.083 20.5358 148.134 20.4082C148.317 19.9098 149.237 20.5958 149.59 20.1954C149.795 19.9866 149.569 19.6162 149.283 19.5482C149.002 19.4758 148.709 19.5822 148.419 19.5906C148.129 19.6034 147.776 19.4502 147.763 19.1606C147.75 18.8754 148.07 18.6706 148.104 18.3898C148.159 17.9126 147.35 17.7894 147.065 18.177C146.783 18.5646 146.881 19.097 146.967 19.5698C147.056 20.0426 147.099 20.6006 146.749 20.9326C146.6 21.1582 146.213 21.039 146.085 20.8006C145.953 20.5622 145.983 20.2722 145.961 20.0042C145.94 19.7314 145.821 19.425 145.557 19.3526C145.374 19.3014 145.178 19.391 144.991 19.4166C144.249 19.5062 143.734 18.5478 143.968 17.841C144.198 17.1298 144.871 16.6738 145.523 16.3118C146 16.0478 146.592 15.8006 147.065 16.069C147.286 16.1926 147.439 16.4054 147.657 16.5334C148.031 16.755 148.496 16.6738 148.926 16.6826C149.603 16.6994 150.272 16.9594 150.779 17.4026C150.97 17.577 151.149 17.867 151 18.0754C150.838 18.297 150.374 18.3438 150.455 18.6034C150.957 18.7694 151.558 18.3818 151.613 17.8582C151.86 17.969 152.039 18.2202 152.061 18.4886C152.601 17.939 153.641 18.0202 154.084 18.6546C154.203 18.8206 154.288 19.021 154.459 19.1358C154.629 19.2466 154.927 19.191 154.948 18.991C154.957 18.927 154.935 18.8634 154.914 18.8034C154.812 18.5138 154.705 18.2286 154.603 17.943C154.999 17.7302 155.468 18.0622 155.736 18.4202C156.733 19.7534 157.444 18.9526 158.85 19.1698C159.799 19.3146 160.217 19.9238 160.754 20.6606C162.398 22.9266 164.57 24.7834 166.065 27.1514C166.223 27.3986 166.367 27.6498 166.503 27.905C166.503 27.9094 166.503 27.9094 166.503 27.9094C166.631 28.2502 166.751 28.593 166.865 28.9386C166.979 29.2842 167.085 29.6322 167.185 29.9838C167.444 30.8974 167.671 31.677 167.83 32.6254C167.83 32.6254 168.017 34.1474 168.062 34.643C168.097 35.0226 168.13 35.4022 168.151 35.7846C168.172 36.167 168.183 36.5514 168.186 36.939L168.139 39.081Z" fill="#EBEBEB"/>
<path d="M186.823 184.971C186.823 185.029 147.948 185.075 100.004 185.075C52.0436 185.075 13.1772 185.028 13.1772 184.971C13.1772 184.914 52.044 184.867 100.004 184.867C147.948 184.867 186.823 184.914 186.823 184.971Z" fill="#263238"/>
<path d="M191.855 102.652L156.273 114.918C155.145 115.306 153.915 114.707 153.526 113.579L141.261 77.9975C140.872 76.8691 141.471 75.6391 142.599 75.2503L178.181 62.9847C179.309 62.5959 180.539 63.1951 180.928 64.3235L193.193 99.9047C193.582 101.033 192.983 102.263 191.855 102.652Z" fill="#1877F2"/>
<path d="M163.886 77.7424C163.341 77.9252 162.819 78.144 162.316 78.3892C162.299 78.358 162.278 78.3301 162.258 78.3017C162.374 77.9717 162.392 77.6048 162.272 77.248C161.987 76.3976 161.063 75.9381 160.213 76.2233C159.363 76.5085 158.903 77.4324 159.188 78.2828C159.403 78.9216 159.977 79.3396 160.611 79.3868C155.983 82.5964 153.82 88.584 155.701 94.1924C157.984 100.995 165.349 104.66 172.151 102.377C178.954 100.095 182.618 92.7301 180.336 85.9277C178.054 79.1245 170.689 75.46 163.886 77.7424ZM159.551 78.1613C159.332 77.5105 159.684 76.8036 160.335 76.5852C160.985 76.3668 161.692 76.7188 161.911 77.3692C161.984 77.5888 161.988 77.8132 161.943 78.0248C161.735 77.9176 161.486 77.8904 161.247 77.9708C160.81 78.1172 160.565 78.5661 160.659 79.0061C160.166 78.9765 159.717 78.6565 159.551 78.1613ZM174.271 97.8876L172.73 96.9708C172.49 96.828 172.191 97.0252 172.228 97.3024L172.455 98.9897C172.12 99.1457 171.775 99.2865 171.416 99.4069C167.221 100.814 162.745 99.2308 160.299 95.8096L161.069 94.674C161.223 94.4472 161.015 94.1508 160.749 94.2188L159.527 94.5328C159.315 94.1136 159.13 93.6752 158.976 93.2168C157.579 89.0528 159.129 84.6112 162.498 82.154L163.864 83.1044C164.077 83.2528 164.364 83.0744 164.326 82.8176L164.086 81.2136C164.433 81.0496 164.793 80.902 165.166 80.7768C169.361 79.3692 173.839 80.9532 176.285 84.376L175.314 85.654C175.172 85.8404 175.333 86.104 175.563 86.0632L177.121 85.788C177.305 86.1656 177.469 86.5577 177.606 86.9665C178.977 91.0521 177.509 95.404 174.271 97.8876Z" fill="white"/>
<path d="M172.869 82.3291C172.869 82.3291 171.252 84.1255 169.362 86.7091L169.254 85.6847C169.254 85.6847 168.166 86.6687 168.013 86.9155C167.724 86.9179 167.431 86.9619 167.141 87.0467L165.077 84.8223L166.02 87.6339C165.638 87.9443 165.336 88.3351 165.132 88.7735L163.685 88.9751C163.685 88.9751 164.467 89.7831 164.831 90.0819C164.826 90.4359 164.876 90.7967 164.994 91.1511C165.004 91.1799 165.017 91.2067 165.028 91.2351L162.785 93.3979L165.723 92.3487C165.732 92.3579 165.741 92.3675 165.75 92.3767C164.788 94.1891 164.015 96.0487 163.681 97.7711C163.681 97.7711 165.103 96.2255 166.838 93.9195L166.964 94.7099C166.964 94.7099 168.233 93.4343 168.153 93.3595C168.148 93.3547 168.137 93.3491 168.122 93.3423C168.435 93.3347 168.752 93.2811 169.064 93.1763C169.1 93.1643 169.132 93.1491 169.167 93.1359L171.444 95.2363L170.261 92.4495C170.455 92.2635 170.626 92.0571 170.767 91.8311L172.348 91.6779C172.348 91.6779 171.574 90.8083 171.23 90.5075C171.283 90.0691 171.247 89.6143 171.107 89.1675L173.357 87.2179L170.676 88.0167C171.687 86.1347 172.51 84.1755 172.869 82.3291ZM167.185 87.5751C167.716 87.3971 168.264 87.3947 168.766 87.5359C167.827 88.8651 166.858 90.3559 166.01 91.8935C165.784 91.6351 165.605 91.3295 165.489 90.9851C165.017 89.5771 165.778 88.0475 167.185 87.5751ZM167.666 92.7915C168.557 91.5463 169.481 90.1455 170.309 88.6811C170.425 88.8623 170.523 89.0587 170.595 89.2719C171.067 90.6795 170.306 92.2091 168.898 92.6811C168.488 92.8187 168.068 92.8487 167.666 92.7915Z" fill="white"/>
<path opacity="0.3" d="M155.244 70.8916L153.359 113.094L151.367 107.316L151.548 72.1656L155.244 70.8916Z" fill="black"/>
<path d="M166.922 152.417L143.513 145.507C142.368 145.169 141.714 143.967 142.052 142.822L148.962 119.413C149.3 118.268 150.502 117.614 151.646 117.952L175.056 124.862C176.2 125.2 176.854 126.402 176.516 127.547L169.606 150.956C169.269 152.1 168.067 152.754 166.922 152.417Z" fill="#1877F2"/>
<g opacity="0.3">
<path d="M166.922 152.417L143.513 145.507C142.368 145.169 141.714 143.967 142.052 142.822L148.962 119.413C149.3 118.268 150.502 117.614 151.646 117.952L175.056 124.862C176.2 125.2 176.854 126.402 176.516 127.547L169.606 150.956C169.269 152.1 168.067 152.754 166.922 152.417Z" fill="black"/>
</g>
<path d="M156.29 135.018C156.187 136.866 157.607 138.454 159.456 138.558C161.305 138.661 162.893 137.241 162.996 135.392C163.1 133.543 161.68 131.955 159.831 131.852C157.982 131.748 156.393 133.169 156.29 135.018Z" fill="white"/>
<path d="M155.219 133.853C155.827 131.863 157.734 130.464 159.901 130.585C160.024 130.592 160.145 130.605 160.265 130.621L160.265 130.606L167.913 131.033C166.469 128.177 163.585 126.147 160.16 125.956C157.195 125.79 154.481 127.04 152.667 129.114L155.219 133.853Z" fill="white"/>
<path d="M163.003 132.029C163.846 132.922 164.336 134.144 164.262 135.463C164.199 136.603 163.725 137.624 162.993 138.392L158.988 144.443C159.034 144.446 159.08 144.452 159.126 144.454C164.234 144.739 168.606 140.83 168.892 135.722C168.958 134.539 168.797 133.397 168.45 132.334L163.003 132.029Z" fill="white"/>
<path d="M160.583 139.735C160.198 139.815 159.796 139.847 159.385 139.824C157.216 139.703 155.58 138.133 154.992 136.108L151.828 130.232C151.002 131.528 150.486 133.045 150.394 134.688C150.138 139.274 153.264 143.264 157.602 144.239L160.583 139.735Z" fill="white"/>
<path d="M87.3152 47.9664L61.602 53.38C60.434 53.626 59.288 52.8784 59.042 51.7108L53.6284 25.9976C53.3824 24.8296 54.13 23.6836 55.2976 23.438L81.0108 18.0244C82.1788 17.7784 83.3248 18.526 83.5708 19.6936L88.9844 45.4068C89.2304 46.5744 88.4832 47.7204 87.3152 47.9664Z" fill="#1877F2"/>
<path d="M67.893 27.9515C67.893 27.9515 66.8134 29.5103 67.0746 30.3103C67.3354 31.1103 68.4042 30.9599 68.6222 30.9543C68.8402 30.9487 70.1414 30.6963 70.1414 30.6963C70.1414 30.6963 70.3306 31.2583 69.9774 31.7559C69.6242 32.2535 68.2806 33.5447 68.2806 33.5447L68.4166 34.8971C68.4166 34.8971 66.9874 34.7647 67.025 35.5399C67.063 36.3151 68.2818 37.2335 69.4366 37.0375C70.5914 36.8415 71.1102 35.8467 71.8754 35.9355C72.641 36.0243 73.595 36.4875 73.595 36.4875C73.595 36.4875 73.6634 37.2575 72.5538 37.3523C72.5538 37.3523 71.3838 39.1143 69.0738 39.3191C69.0738 39.3191 70.3358 41.0431 73.8286 39.8871C76.9042 38.8691 76.8658 35.9315 76.813 35.2443C76.8046 35.1331 76.9266 35.0535 77.0202 35.1139C77.131 35.1855 77.2394 35.3479 77.347 35.5687L76.871 32.1055C76.8346 31.8415 77.1678 31.6899 77.3382 31.8947C77.4074 31.9779 77.475 32.0939 77.5342 32.2543C77.5342 32.2543 77.4162 29.9515 75.1442 28.2471C74.989 28.1307 75.0738 27.8835 75.2678 27.8875C75.6538 27.8955 76.1178 27.9371 76.3558 28.0775C76.3558 28.0775 73.1054 25.6907 73.3582 25.5227C73.611 25.3547 78.8822 26.9379 80.4238 31.5955C80.4238 31.5955 80.479 30.8055 80.7678 30.7819C80.8266 30.7771 81.0302 30.9259 81.2306 31.6787C81.7738 33.7191 81.7486 35.8703 81.1786 37.9035C79.547 43.4483 73.7294 46.6203 68.185 44.9887C62.6402 43.3571 59.4682 37.5395 61.0998 31.9951C61.0998 31.9951 60.3622 29.3479 61.6202 28.2791C61.6202 28.2791 61.873 29.9007 62.8978 29.9739L65.4446 29.4739C65.4446 29.4739 66.1286 27.9775 67.893 27.9515Z" fill="white"/>
<path d="M76.2413 184.971L32.5565 184.949C31.3629 184.949 30.3961 183.981 30.3965 182.787L30.4181 139.102C30.4185 137.909 31.3865 136.942 32.5801 136.942L76.2649 136.964C77.4585 136.964 78.4253 137.932 78.4249 139.126L78.4037 182.811C78.4025 184.004 77.4345 184.972 76.2413 184.971Z" fill="#1877F2"/>
<path d="M67.9292 147.401C65.086 144.957 59.126 147.062 56.9776 147.944C54.7364 147.805 52.47 148.205 50.3904 149.129C47.478 150.423 44.1156 152.974 42.9044 157.982L49.5768 152.519C49.5768 152.519 41.81 159.731 39.9476 167.165C38.0852 174.599 40.9276 175.257 42.4584 175.586C43.9888 175.915 48.2536 175.042 50.1132 173.621C50.1132 173.621 56.672 176.795 62.6872 173.409C68.7024 170.023 68.5952 165.867 68.5952 165.867L61.7068 165.864C61.7068 165.864 59.666 169.067 56.0196 168.923C50.4436 168.701 50.0088 163.343 50.0088 163.343L69.4712 163.353L69.4724 161.222C69.4736 159.102 68.986 157.024 68.062 155.165C68.6732 154.197 71.0088 150.047 67.9292 147.401ZM42.6004 172.706C40.3248 170.934 42.6036 166.509 42.6036 166.509C42.6036 166.509 43.5804 168.464 44.8152 169.735C46.3136 171.276 48.6708 173.025 48.6708 173.025C48.6708 173.025 44.876 174.478 42.6004 172.706ZM50.4752 159.971C50.4768 156.822 53.0312 154.27 56.1808 154.271C59.3304 154.273 61.8824 156.827 61.8808 159.977L50.4752 159.971ZM64.9496 151.145C63.9484 150.287 62.7396 149.509 61.2884 148.921C63.0756 148.166 66.244 147.236 67.7628 149.286C68.97 150.915 68.3332 152.817 67.524 154.191C66.8356 153.058 65.976 152.026 64.9496 151.145Z" fill="white"/>
<g opacity="0.3">
<path d="M30.2778 166.544C32.4242 164.093 33.7366 160.991 34.4006 157.801C35.183 154.043 35.1046 150.147 34.8382 146.332C34.769 145.344 34.8626 144.343 35.1938 143.409C36.5446 139.598 40.1782 140.012 43.2314 140.34C51.8214 141.263 60.6294 140.084 68.6738 136.934H32.489C31.3362 136.934 30.4002 137.866 30.3954 139.018L30.2778 166.544Z" fill="black"/>
</g>
<path d="M55.6205 78.569C54.8285 80.4674 52.4449 81.4753 52.0221 83.4885C51.6729 85.1521 52.8037 87.0457 51.9217 88.4993C51.1053 89.8449 49.1049 89.8705 47.9713 90.9625C47.2521 91.6553 46.9785 92.6889 46.8673 93.6813C46.7345 94.8677 46.8169 96.1541 47.5229 97.1169C48.1785 98.0113 49.2925 98.4898 50.3981 98.5766C51.5037 98.6634 52.6077 98.3989 53.6585 98.0445C56.5813 97.0589 59.2977 95.3094 61.1233 92.8234C62.9489 90.337 63.8097 87.0806 63.1093 84.0766C62.4089 81.0726 60.0357 78.4354 57.0317 77.7354" fill="#263238"/>
<path d="M48.9065 97.1694C48.8993 97.1706 48.8861 97.1158 48.8669 97.0098C48.8497 96.9038 48.8169 96.747 48.8073 96.5422C48.7729 96.135 48.7721 95.533 48.9269 94.8122C49.0749 94.0922 49.3845 93.2542 49.9301 92.4418C50.2013 92.0358 50.5385 91.6438 50.9309 91.285C51.3217 90.9218 51.7865 90.6162 52.2553 90.3246C52.7213 90.0278 53.1637 89.7222 53.4877 89.3302C53.8165 88.9454 54.0165 88.4798 54.0017 88.0194C53.9921 87.5574 53.8425 87.1214 53.7481 86.6998C53.6433 86.2806 53.6165 85.8546 53.6985 85.4866C53.8577 84.7438 54.2953 84.2678 54.6185 84.0222C54.7825 83.8954 54.9269 83.823 55.0257 83.7782C55.1265 83.7378 55.1801 83.7202 55.1829 83.727C55.1937 83.7478 54.9741 83.8222 54.6697 84.0854C54.3725 84.341 53.9741 84.813 53.8433 85.515C53.7761 85.8634 53.8073 86.2506 53.9165 86.6602C54.0145 87.0702 54.1765 87.5102 54.1941 88.0158C54.2169 88.5266 53.9937 89.0506 53.6449 89.4606C53.2997 89.8818 52.8361 90.2018 52.3677 90.4998C51.4065 91.0598 50.6241 91.7582 50.0885 92.5502C49.5497 93.3334 49.2333 94.1442 49.0705 94.8446C48.9009 95.5454 48.8789 96.1354 48.8885 96.5386C48.8945 96.9426 48.9265 97.1666 48.9065 97.1694Z" fill="#455A64"/>
<path d="M56.2386 72.6849C55.3066 72.0313 54.8722 70.7465 55.2166 69.6617C55.561 68.5765 56.6566 67.7777 57.795 67.7813C59.0542 67.7853 60.1398 68.6481 61.3614 68.9529C62.319 69.1917 63.3234 69.0797 64.3098 69.1053C65.2962 69.1309 66.3538 69.3345 67.0342 70.0489C67.8834 70.9405 67.9122 72.3701 68.6946 73.3205C69.2534 73.9993 70.1154 74.3381 70.8182 74.8661C71.8898 75.6705 72.5854 76.9557 72.6734 78.2925C72.7614 79.6293 72.2402 80.9949 71.2834 81.9329C70.8138 82.3929 70.2314 82.7753 69.9566 83.3725C69.539 84.2809 69.9342 85.4841 69.2994 86.2565C68.6698 87.0225 67.3166 86.9617 66.8362 87.8293C66.6434 88.1777 66.5942 88.6661 66.227 88.8197C65.9402 88.9397 65.6202 88.7765 65.3526 88.6177C64.1302 87.8929 62.9078 87.1681 61.6854 86.4433" fill="#263238"/>
<path d="M60.9089 90.326L57.1389 90.8292C55.7161 91.2956 54.4293 92.1044 53.3925 93.1844L42.9637 104.047L40.3205 87.9424L34.9165 88.6356L36.5397 107.85C36.7993 110.923 39.2761 113.436 42.3593 113.513C42.5021 113.516 42.6461 113.515 42.7909 113.509C44.4077 113.439 45.9213 112.69 47.0541 111.534L53.8913 105.574" fill="#1877F2"/>
<path d="M35.9563 90.0687C35.9071 90.0747 35.8211 89.7115 35.7643 89.2575C35.7071 88.8031 35.7007 88.4303 35.7499 88.4239C35.7991 88.4179 35.8851 88.7807 35.9419 89.2351C35.9987 89.6895 36.0051 90.0627 35.9563 90.0687Z" fill="#263238"/>
<path d="M37.5452 90.0531C37.496 90.0575 37.42 89.6703 37.3756 89.1883C37.3312 88.7059 37.3352 88.3115 37.3844 88.3067C37.4336 88.3023 37.5096 88.6895 37.554 89.1719C37.5984 89.6543 37.5944 90.0487 37.5452 90.0531Z" fill="#263238"/>
<path d="M39.1178 89.8878C39.0686 89.8926 38.9866 89.461 38.9346 88.9242C38.8826 88.387 38.8802 87.9482 38.9294 87.9434C38.9786 87.9386 39.0606 88.3698 39.1126 88.907C39.165 89.4438 39.167 89.883 39.1178 89.8878Z" fill="#263238"/>
<path d="M43.2348 75.5508C43.3408 75.7408 46.4612 88.8912 46.4612 88.8912L40.3928 89.4236L37.5728 78.1208L43.2348 75.5508Z" fill="#455A64"/>
<path d="M46.4612 88.8911L47.1456 88.5679L43.9804 75.6091L43.1528 75.5879L46.4612 88.8911Z" fill="#263238"/>
<path d="M40.9089 78.5483C40.9373 78.7199 40.8209 78.8823 40.6489 78.9107C40.4769 78.9391 40.3149 78.8227 40.2865 78.6507C40.2581 78.4791 40.3745 78.3167 40.5465 78.2883C40.7181 78.2603 40.8805 78.3767 40.9089 78.5483Z" fill="#263238"/>
<path d="M40.0462 88.0353L39.873 86.1729L42.4266 84.9969L41.3158 82.6325C40.7766 81.5309 39.411 81.1253 38.3578 81.7537C38.0186 81.9561 37.6614 82.1693 37.339 82.3617C36.613 82.7953 36.1018 83.5145 35.9394 84.3441C35.659 85.7753 35.4834 88.7425 35.5094 88.6081" fill="#B78876"/>
<path d="M59.5848 90.1477C54.7608 90.6885 53.194 94.2905 50.944 97.5181L47.6924 103.52L53.8912 105.574L53.4648 116.401L50.6152 125.184L72.8376 123.871L71.038 115.531L72.3048 106.012L73.4876 98.0729C73.89 95.3725 72.4508 92.6621 69.9076 91.6681C66.916 90.4989 66.836 90.2805 64.4556 90.1753C63.702 90.1425 60.1964 89.9981 59.5848 90.1477Z" fill="#1877F2"/>
<path d="M53.4708 116.149C53.4852 116.149 53.506 115.916 53.5312 115.494C53.5536 115.037 53.5828 114.435 53.6184 113.709C53.6828 112.201 53.7576 110.117 53.8272 107.816C53.8968 105.514 53.9484 103.429 53.9752 101.92C53.9836 101.193 53.9908 100.59 53.996 100.132C53.9964 99.71 53.9896 99.476 53.9752 99.4756C53.9608 99.4748 53.94 99.7076 53.9148 100.129C53.8924 100.586 53.8632 101.188 53.8276 101.914C53.7632 103.422 53.6884 105.506 53.6184 107.809C53.5488 110.111 53.4972 112.196 53.4704 113.705C53.462 114.432 53.4548 115.034 53.4492 115.493C53.4496 115.915 53.4564 116.148 53.4708 116.149Z" fill="#263238"/>
<path d="M18.9255 169.971L18.8447 166.013L26.4363 163.316L26.7503 168.827L26.3235 169.033C24.4175 169.934 16.5679 173.479 15.1035 173.614C13.4703 173.763 18.9255 169.971 18.9255 169.971Z" fill="#1877F2"/>
<g opacity="0.4">
<path d="M16.3028 171.929C16.3028 171.929 14.4448 173.391 14.8484 173.631C15.2516 173.871 23.3192 170.587 26.7508 168.827L26.6752 168.674L17.298 172.585C17.298 172.585 16.7212 171.779 16.3028 171.929Z" fill="white"/>
</g>
<path d="M26.7843 168.624C26.7855 168.627 26.7455 168.649 26.6683 168.687C26.5663 168.736 26.4543 168.79 26.3279 168.85C25.9851 169.007 25.5635 169.2 25.0663 169.428C23.9975 169.908 22.5119 170.553 20.8567 171.228C19.2003 171.904 17.6879 172.482 16.5879 172.886C16.0731 173.072 15.6367 173.228 15.2819 173.356C15.1491 173.401 15.0319 173.441 14.9247 173.478C14.8427 173.504 14.7991 173.517 14.7979 173.514C14.7967 173.511 14.8383 173.492 14.9183 173.46C15.0239 173.418 15.1391 173.373 15.2695 173.322C15.6215 173.188 16.0543 173.022 16.5647 172.826C17.6583 172.406 19.1659 171.818 20.8215 171.143C22.4763 170.468 23.9647 169.834 25.0399 169.368C25.5419 169.151 25.9671 168.967 26.3131 168.817C26.4419 168.762 26.5563 168.714 26.6607 168.67C26.7403 168.638 26.7827 168.622 26.7843 168.624Z" fill="#263238"/>
<path d="M17.3446 172.693C17.3198 172.707 17.175 172.408 16.8554 172.178C16.5398 171.941 16.2114 171.892 16.2174 171.864C16.2138 171.84 16.571 171.85 16.9102 172.103C17.2522 172.352 17.3678 172.69 17.3446 172.693Z" fill="#263238"/>
<path d="M18.9983 170.787C18.9835 170.808 18.8343 170.727 18.6651 170.607C18.4959 170.486 18.3707 170.372 18.3855 170.351C18.4003 170.33 18.5495 170.411 18.7187 170.531C18.8883 170.652 19.0135 170.766 18.9983 170.787Z" fill="#263238"/>
<path d="M19.4475 170.251C19.4387 170.275 19.2971 170.246 19.1307 170.186C18.9643 170.126 18.8367 170.058 18.8451 170.035C18.8539 170.011 18.9955 170.04 19.1619 170.1C19.3283 170.159 19.4559 170.227 19.4475 170.251Z" fill="#263238"/>
<path d="M19.538 169.437C19.548 169.461 19.3912 169.549 19.1884 169.635C18.9856 169.72 18.8128 169.77 18.8032 169.746C18.7932 169.723 18.9496 169.635 19.1528 169.549C19.3556 169.464 19.528 169.414 19.538 169.437Z" fill="#263238"/>
<path d="M19.4706 168.917C19.487 168.935 19.3402 169.088 19.1078 169.204C18.8758 169.32 18.6642 169.344 18.6598 169.32C18.6538 169.294 18.8462 169.232 19.0662 169.121C19.2878 169.012 19.4534 168.896 19.4706 168.917Z" fill="#263238"/>
<path d="M18.5078 170.268C18.5122 170.277 18.3466 170.369 18.0526 170.45C17.9058 170.49 17.727 170.524 17.5258 170.54C17.4246 170.544 17.3222 170.558 17.2026 170.538C17.1454 170.527 17.0782 170.505 17.033 170.443C16.9866 170.383 16.9918 170.292 17.0278 170.234C17.3702 169.832 17.9042 169.899 18.1566 170.058C18.2918 170.136 18.3778 170.232 18.4282 170.301C18.4778 170.371 18.4946 170.416 18.4898 170.418C18.4762 170.431 18.3862 170.252 18.1254 170.115C17.997 170.048 17.825 170.002 17.635 170.021C17.4554 170.039 17.2218 170.119 17.109 170.278C17.0586 170.361 17.1214 170.434 17.221 170.45C17.3154 170.467 17.4238 170.457 17.5206 170.455C17.7166 170.444 17.8922 170.417 18.0378 170.386C18.329 170.324 18.5022 170.254 18.5078 170.268Z" fill="#263238"/>
<path d="M18.3995 170.338C18.3951 170.346 18.2807 170.257 18.2187 170.044C18.1891 169.94 18.1775 169.806 18.2075 169.662C18.2467 169.529 18.2931 169.348 18.4915 169.277C18.6023 169.248 18.7023 169.346 18.7167 169.43C18.7407 169.512 18.7327 169.596 18.7223 169.664C18.7007 169.805 18.6619 169.928 18.6195 170.026C18.5335 170.223 18.4431 170.322 18.4343 170.316C18.4219 170.308 18.4915 170.197 18.5583 170.002C18.5911 169.905 18.6219 169.786 18.6375 169.653C18.6607 169.532 18.6331 169.342 18.5111 169.368C18.3931 169.403 18.3231 169.563 18.2903 169.682C18.2591 169.809 18.2623 169.931 18.2819 170.03C18.3231 170.228 18.4131 170.329 18.3995 170.338Z" fill="#263238"/>
<path d="M25.853 166.75C25.8578 166.767 25.6426 166.813 25.3386 166.981C25.0366 167.145 24.6494 167.454 24.3906 167.914C24.1326 168.375 24.0706 168.866 24.0882 169.21C24.1038 169.556 24.1762 169.764 24.1594 169.769C24.1542 169.77 24.131 169.721 24.1014 169.626C24.0714 169.532 24.0398 169.391 24.0234 169.214C23.9882 168.863 24.041 168.35 24.3102 167.869C24.5798 167.389 24.9902 167.077 25.3082 166.924C25.4678 166.845 25.6046 166.799 25.701 166.775C25.797 166.751 25.8514 166.744 25.853 166.75Z" fill="#263238"/>
<path d="M23.9238 164.108C23.9474 164.098 24.2394 164.736 24.5758 165.534C24.9126 166.332 25.1662 166.986 25.1426 166.996C25.119 167.006 24.8274 166.368 24.4906 165.57C24.1542 164.772 23.9006 164.118 23.9238 164.108Z" fill="#263238"/>
<path d="M22.9959 169.486C23.0079 169.507 22.5783 169.77 22.0063 170.008C21.4347 170.248 20.9455 170.369 20.9391 170.346C20.9311 170.32 21.4043 170.161 21.9703 169.923C22.5371 169.687 22.9831 169.462 22.9959 169.486Z" fill="#263238"/>
<path d="M24.3799 168.92C24.4043 168.93 24.3819 169.033 24.3779 169.158C24.3723 169.283 24.3863 169.387 24.3611 169.395C24.3383 169.405 24.2791 169.299 24.2851 169.154C24.2907 169.01 24.3575 168.909 24.3799 168.92Z" fill="#263238"/>
<path d="M24.6378 168.058C24.6614 168.068 24.6458 168.16 24.6026 168.264C24.5598 168.368 24.5058 168.444 24.4822 168.434C24.4586 168.425 24.4742 168.332 24.5174 168.229C24.5602 168.125 24.6142 168.049 24.6378 168.058Z" fill="#263238"/>
<path d="M25.2634 167.457C25.2682 167.483 25.1742 167.52 25.085 167.599C24.9942 167.676 24.9438 167.763 24.9186 167.755C24.8942 167.75 24.913 167.625 25.0242 167.529C25.1354 167.433 25.2618 167.432 25.2634 167.457Z" fill="#263238"/>
<path d="M25.738 167.101C25.7556 167.12 25.7296 167.172 25.6804 167.219C25.6312 167.266 25.5768 167.288 25.5592 167.27C25.5416 167.251 25.5676 167.199 25.6168 167.152C25.6664 167.106 25.7204 167.083 25.738 167.101Z" fill="#263238"/>
<path d="M49.3962 125.531L27.1062 125.948C23.5426 126.015 20.571 128.693 20.1358 132.23L15.7158 168.152H27.8218L31.5182 137.126H49.0942L49.3962 125.531Z" fill="#263238"/>
<path d="M15.8667 165.868C15.8663 165.926 18.5183 165.989 21.7891 166.01C25.0611 166.03 27.6563 165.948 27.7135 165.942C28.0891 165.906 25.0627 165.822 21.7903 165.801C18.5195 165.781 15.8671 165.811 15.8667 165.868Z" fill="#455A64"/>
<path d="M70.3195 137.126C79.2167 134.18 72.8383 123.872 72.8383 123.872L38.9091 125.851C35.7871 125.83 33.2451 128.355 33.2451 131.477L33.3691 132.382C33.3691 135.49 35.7639 137.103 38.8711 137.103L70.3195 137.126Z" fill="#263238"/>
<path d="M65.0609 124.398C65.0605 124.394 65.0229 124.393 64.9493 124.394C64.8645 124.396 64.7569 124.398 64.6229 124.401C64.3217 124.413 63.9025 124.429 63.3693 124.45C62.2661 124.502 60.6957 124.576 58.7613 124.666C54.8589 124.869 49.4917 125.148 43.5633 125.456C42.8217 125.489 42.0873 125.55 41.3661 125.56C40.6405 125.57 39.9265 125.599 39.2257 125.639C38.5249 125.679 37.8373 125.729 37.1645 125.798C36.4977 125.871 35.8201 125.939 35.2057 126.178C34.5917 126.404 34.0301 126.737 33.5769 127.166C33.1225 127.596 32.7981 128.126 32.5889 128.668C32.3773 129.211 32.2613 129.762 32.1865 130.291C32.1137 130.821 32.0749 131.334 32.0789 131.826C32.0829 132.807 32.2641 133.699 32.5957 134.41C32.9245 135.123 33.3825 135.642 33.8137 135.982C34.2469 136.323 34.6473 136.493 34.9229 136.575C35.1997 136.658 35.2049 136.63 34.9357 136.536C34.6677 136.444 34.2801 136.265 33.8633 135.921C33.4481 135.58 33.0093 135.063 32.6981 134.363C32.3837 133.665 32.2161 132.791 32.2209 131.825C32.2217 131.342 32.2641 130.836 32.3401 130.313C32.4177 129.792 32.5353 129.253 32.7437 128.729C32.9497 128.206 33.2625 127.703 33.6981 127.294C34.1333 126.886 34.6749 126.568 35.2693 126.351C35.8625 126.123 36.5141 126.06 37.1837 125.988C37.8525 125.921 38.5381 125.874 39.2365 125.834C39.9353 125.796 40.6465 125.769 41.3685 125.758C42.0949 125.749 42.8257 125.689 43.5689 125.655C49.4977 125.324 54.8649 125.025 58.7677 124.807C60.7009 124.689 62.2705 124.594 63.3733 124.527C63.9053 124.49 64.3241 124.461 64.6249 124.44C64.7585 124.429 64.8657 124.42 64.9501 124.413C65.0237 124.407 65.0613 124.402 65.0609 124.398Z" fill="#455A64"/>
<path d="M65.7674 72.4438C66.4398 72.515 66.9462 73.0886 66.9326 73.765L66.1946 91.3554C66.1666 93.4326 62.3974 95.889 60.1734 95.8422C57.9274 95.795 58.4018 93.4054 58.5554 91.435C58.7294 89.2006 58.5014 86.9126 58.5014 86.9126C58.5014 86.9126 55.6634 86.4414 55.0754 82.7386C54.783 80.897 54.8754 77.8778 55.031 75.4098C55.171 73.1882 57.1302 71.5302 59.3438 71.7642L65.7674 72.4438Z" fill="#B78876"/>
<path d="M55.9925 77.8071C55.9837 78.0579 56.1889 78.2722 56.4505 78.2862C56.7117 78.3002 56.9313 78.109 56.9401 77.8582C56.9489 77.6074 56.7441 77.3931 56.4825 77.3787C56.2209 77.3647 56.0013 77.5563 55.9925 77.8071Z" fill="#263238"/>
<path d="M55.6854 76.9807C55.7442 77.0427 56.1042 76.7763 56.615 76.7779C57.1254 76.7719 57.5006 77.0347 57.5558 76.9723C57.583 76.9447 57.523 76.8327 57.3598 76.7139C57.199 76.5955 56.925 76.4803 56.6066 76.4815C56.2882 76.4831 56.0206 76.6003 55.8666 76.7203C55.7094 76.8407 55.6562 76.9527 55.6854 76.9807Z" fill="#263238"/>
<path d="M60.9886 77.8061C60.9798 78.0569 61.185 78.2713 61.4466 78.2853C61.7078 78.2993 61.9274 78.1081 61.9362 77.8573C61.945 77.6065 61.7402 77.3921 61.4786 77.3777C61.2166 77.3637 60.9974 77.5553 60.9886 77.8061Z" fill="#263238"/>
<path d="M60.7086 77.0754C60.7678 77.1374 61.1278 76.871 61.6386 76.8726C62.149 76.8666 62.5242 77.1294 62.5794 77.067C62.6066 77.0394 62.547 76.9278 62.3834 76.8086C62.2226 76.6902 61.9486 76.575 61.6302 76.5762C61.3118 76.5782 61.0442 76.695 60.8902 76.815C60.7334 76.9358 60.6798 77.0478 60.7086 77.0754Z" fill="#263238"/>
<path d="M58.8541 80.8653C58.8565 80.8361 58.5389 80.7813 58.0241 80.7157C57.8937 80.7021 57.7701 80.6765 57.7481 80.5873C57.7173 80.4929 57.7721 80.3525 57.8353 80.2005C57.9581 79.8849 58.0865 79.5537 58.2213 79.2069C58.7573 77.7921 59.1449 76.6289 59.0881 76.6077C59.0309 76.5865 58.5501 77.7161 58.0145 79.1309C57.8857 79.4797 57.7621 79.8121 57.6449 80.1305C57.5957 80.2789 57.5105 80.4469 57.5773 80.6425C57.6125 80.7401 57.7081 80.8109 57.7917 80.8333C57.8753 80.8589 57.9489 80.8601 58.0133 80.8641C58.5309 80.8921 58.8521 80.8945 58.8541 80.8653Z" fill="#263238"/>
<path d="M58.501 86.9126C58.501 86.9126 60.9922 87.073 63.4602 85.5898C63.4602 85.5898 62.257 88.1334 58.551 87.787L58.501 86.9126Z" fill="#AA6550"/>
<path d="M59.0698 82.0974C59.2534 81.8546 59.5754 81.7209 59.8954 81.7553C60.117 81.7793 60.3414 81.8861 60.4758 82.0665C60.6106 82.2469 60.6386 82.5034 60.5162 82.6758C60.3782 82.8698 60.0902 82.9145 59.8462 82.8449C59.6022 82.7757 59.3926 82.615 59.193 82.455C59.1378 82.4106 59.0814 82.3645 59.047 82.3037C59.0126 82.2429 59.0054 82.1637 59.0478 82.1133" fill="#AA6550"/>
<path d="M60.3582 81.2188C60.275 81.214 60.2742 81.7688 59.7994 82.1624C59.3254 82.5576 58.7342 82.4952 58.7298 82.5728C58.7222 82.6076 58.8614 82.6804 59.111 82.6872C59.3558 82.6956 59.7134 82.6168 60.0038 82.376C60.2934 82.1344 60.4182 81.8124 60.437 81.5848C60.4582 81.3532 60.3962 81.2156 60.3582 81.2188Z" fill="#263238"/>
<path d="M60.4787 76.1809C60.5291 76.3197 61.0395 76.2541 61.6387 76.3261C62.2399 76.3861 62.7231 76.5617 62.8027 76.4373C62.8383 76.3777 62.7539 76.2469 62.5583 76.1125C62.3647 75.9781 62.0555 75.8505 61.6955 75.8105C61.3355 75.7713 61.0059 75.8281 60.7875 75.9173C60.5679 76.0057 60.4571 76.1149 60.4787 76.1809Z" fill="#263238"/>
<path d="M55.8737 75.5011C55.9637 75.6171 56.3157 75.4967 56.7389 75.4911C57.1621 75.4707 57.5205 75.5691 57.6033 75.4475C57.6393 75.3887 57.5829 75.2723 57.4265 75.1623C57.2721 75.0527 57.0141 74.9635 56.7229 74.9723C56.4321 74.9815 56.1801 75.0867 56.0329 75.2055C55.8829 75.3251 55.8337 75.4443 55.8737 75.5011Z" fill="#263238"/>
<path d="M55.0302 75.4096C55.5646 73.6256 55.9918 73.0816 57.8202 72.4716C58.729 76.4812 62.3102 75.1348 64.3334 75.4652C64.5402 75.4988 64.7574 75.53 64.9258 75.6544C65.2378 75.886 65.2622 76.3352 65.261 76.7236C65.2574 77.8204 65.2782 78.9272 65.5306 79.9944C65.783 81.0616 66.2858 82.0976 67.1126 82.8184C68.3338 80.2448 68.4554 77.25 67.9094 74.4544C67.6862 73.3124 67.3078 72.116 66.3982 71.3904C65.747 70.8712 64.9058 70.6624 64.0862 70.512C62.0626 70.1408 58.9146 67.4788 56.9398 68.0576C55.4486 68.4948 54.7838 69.3628 54.4418 70.4024C53.9826 71.7984 54.1254 73.3236 54.7102 74.6716L55.0302 75.4096Z" fill="#263238"/>
<path d="M70.2162 129.225C70.221 129.235 70.1154 129.299 69.9082 129.378C69.7014 129.458 69.3858 129.539 68.987 129.565C68.2042 129.627 67.017 129.383 66.137 128.491C65.2666 127.588 65.0526 126.395 65.1342 125.614C65.1706 125.216 65.2598 124.903 65.345 124.698C65.4294 124.493 65.495 124.389 65.5058 124.394C65.5466 124.407 65.3146 124.851 65.2814 125.623C65.2398 126.377 65.4702 127.5 66.2862 128.345C67.1106 129.182 68.227 129.441 68.9818 129.418C69.7538 129.404 70.2034 129.184 70.2162 129.225Z" fill="#455A64"/>
<path d="M57.5806 90.9855V88.7391C57.5806 88.2003 58.0082 87.7591 58.5466 87.7419L66.3506 87.4927C66.9018 87.4751 67.363 87.9083 67.3798 88.4595L67.491 92.1047L62.9322 96.2883L58.501 96.7487L57.7446 94.2927L57.5806 90.9855Z" fill="#1877F2"/>
<path d="M67.7168 91.2344C66.568 92.1948 65.6728 93.4228 65.11 94.8104L59.7896 107.633L55.992 95.3348L51.1088 96.3096C49.9256 96.5456 49.2004 97.7464 49.5424 98.9036L54.3068 115.039C55.69 117.804 59.518 118.856 62.4136 117.774C62.542 117.726 62.6692 117.673 62.796 117.616C64.272 116.953 65.4 115.696 66.024 114.202L70.1656 106.133L72.9276 99.8208C72.9856 99.6884 73.0384 99.5552 73.0868 99.4216C74.398 95.7756 71.874 91.8596 68.0424 91.2832L67.7168 91.2344Z" fill="#1877F2"/>
<path d="M60.3219 110.338C60.2731 110.346 60.1299 109.72 60.0023 108.938C59.8743 108.156 59.8103 107.517 59.8591 107.509" fill="#263238"/>
<path d="M50.9008 96.3623C50.9044 96.3747 50.74 96.3975 50.4644 96.5299C50.196 96.6623 49.8176 96.9655 49.6372 97.5215C49.5436 97.7939 49.4916 98.1151 49.5232 98.4643C49.5464 98.8135 49.686 99.1759 49.802 99.5771C50.0428 100.377 50.316 101.284 50.618 102.286C51.2192 104.299 51.9328 106.689 52.7248 109.342C53.1208 110.67 53.536 112.063 53.9664 113.507C54.4132 114.924 55.3488 116.247 56.6532 117.136C57.9556 118.015 59.5524 118.41 61.018 118.174C62.4884 117.952 63.7828 117.136 64.6112 116.057C65.0348 115.524 65.3072 114.904 65.6184 114.323C65.9216 113.741 66.2164 113.176 66.5012 112.629C67.0716 111.538 67.6028 110.52 68.0888 109.59C69.06 107.745 69.848 106.247 70.4008 105.196C70.6724 104.69 70.886 104.292 71.0388 104.007C71.1092 103.88 71.1652 103.779 71.2092 103.7C71.2488 103.631 71.2704 103.597 71.2736 103.599C71.2768 103.6 71.2612 103.638 71.228 103.71C71.1888 103.792 71.1384 103.896 71.076 104.026C70.9316 104.316 70.7296 104.72 70.4728 105.234C69.934 106.292 69.166 107.8 68.2196 109.658C67.7404 110.592 67.2164 111.613 66.6544 112.709C66.3724 113.257 66.0808 113.824 65.7808 114.408C65.4756 114.983 65.2024 115.615 64.7628 116.174C63.9104 117.293 62.572 118.144 61.0488 118.376C59.5268 118.623 57.8812 118.216 56.5356 117.308C55.19 116.391 54.2284 115.027 53.7716 113.569C53.3448 112.122 52.9328 110.727 52.5404 109.396C51.7644 106.739 51.0652 104.344 50.4764 102.328C50.1856 101.323 49.922 100.412 49.69 99.6099C49.5808 99.2119 49.4436 98.8399 49.424 98.4719C49.3968 98.1083 49.4576 97.7731 49.5604 97.4943C49.7596 96.9211 50.1656 96.6139 50.4456 96.4919C50.7344 96.3691 50.9008 96.3623 50.9008 96.3623Z" fill="#263238"/>
<path d="M55.9922 95.334C55.999 95.332 56.0322 95.4128 56.0886 95.568C56.1502 95.7448 56.2286 95.9704 56.3254 96.2492C56.5306 96.8684 56.8134 97.7216 57.159 98.7648C57.8506 100.916 58.7926 103.846 59.833 107.083C59.8758 107.218 59.9182 107.352 59.9578 107.476L59.7626 107.468C61.0378 104.415 62.185 101.669 63.0254 99.6568C63.4422 98.6836 63.7826 97.8892 64.0302 97.312C64.1454 97.0536 64.239 96.8444 64.3122 96.68C64.3786 96.5364 64.4166 96.4624 64.4234 96.4652C64.4298 96.468 64.4046 96.5472 64.3502 96.6956C64.2862 96.864 64.2042 97.078 64.1034 97.3424C63.871 97.9256 63.551 98.7288 63.1594 99.712C62.3338 101.731 61.2074 104.485 59.955 107.547L59.8466 107.812L59.7598 107.539C59.7202 107.414 59.6774 107.28 59.6346 107.146C58.6162 103.9 57.6942 100.962 57.0174 98.8044C56.6982 97.7536 56.437 96.894 56.2474 96.2704C56.1658 95.9872 56.0998 95.758 56.0482 95.5788C56.0046 95.42 55.985 95.336 55.9922 95.334Z" fill="#263238"/>
<path d="M69.6804 92.3851C69.6768 92.4195 69.3484 92.3839 68.8284 92.4399C68.3112 92.4935 67.5972 92.6663 66.918 93.0763C66.2388 93.4863 65.7524 94.0375 65.4644 94.4699C65.1724 94.9035 65.0508 95.2107 65.0188 95.1979C64.9968 95.1911 65.07 94.8611 65.3396 94.3915C65.6044 93.9247 66.0964 93.3283 66.8104 92.8975C67.524 92.4667 68.2808 92.3095 68.8176 92.2927C69.3588 92.2735 69.6848 92.3627 69.6804 92.3851Z" fill="#263238"/>
<path d="M59.1157 91.0303C59.0581 91.0279 59.0449 90.2847 59.0857 89.3711C59.1265 88.4571 59.2065 87.7183 59.2637 87.7207C59.3213 87.7231 59.3345 88.4663 59.2937 89.3803C59.2529 90.2939 59.1733 91.0327 59.1157 91.0303Z" fill="#263238"/>
<path d="M61.183 90.8293C61.127 90.8349 61.0138 90.1357 61.0026 89.2645C60.9898 88.3933 61.0846 87.6913 61.1406 87.6953C61.1994 87.6993 61.1982 88.3997 61.211 89.2617C61.2214 90.1233 61.2414 90.8241 61.183 90.8293Z" fill="#263238"/>
<path d="M63.2726 90.7853C63.2166 90.7889 63.125 90.0773 63.1322 89.1949C63.1378 88.3121 63.2398 87.6021 63.2958 87.6065C63.3542 87.6109 63.3462 88.3217 63.3402 89.1965C63.3334 90.0709 63.3314 90.7817 63.2726 90.7853Z" fill="#263238"/>
<path d="M65.472 90.6965C65.4144 90.6941 65.3652 89.9933 65.362 89.1309C65.3588 88.2685 65.4028 87.5669 65.4604 87.5645C65.518 87.5617 65.5672 88.2625 65.5704 89.1305C65.5736 89.9973 65.5296 90.6989 65.472 90.6965Z" fill="#263238"/>
<path d="M42.5915 108.068C42.5459 108.09 42.2039 107.116 42.3283 105.876C42.4419 104.635 42.9627 103.744 43.0031 103.774C43.0635 103.799 42.6435 104.699 42.5355 105.896C42.4143 107.091 42.6555 108.055 42.5915 108.068Z" fill="#263238"/>
<path d="M55.383 95.5454C55.383 95.5454 55.1086 92.4814 54.905 90.8994C54.7014 89.3174 53.7342 89.505 53.645 88.6474C53.5562 87.7898 53.165 87.833 53.165 87.833C52.6978 87.663 52.8046 88.937 52.8046 88.937C52.8046 88.937 49.033 88.0254 48.7494 87.907C48.4658 87.7882 48.0098 88.1114 48.177 88.539C48.2358 88.6894 50.3398 89.5702 50.3398 89.5702C50.3398 89.5702 48.6122 91.2342 48.5746 91.9366C48.537 92.6386 50.8518 94.275 50.8518 94.275L50.901 96.3626L55.383 95.5454Z" fill="#B78876"/>
<path d="M52.0414 90.4943C52.0122 90.5015 51.9654 90.4071 51.813 90.3399C51.6638 90.2731 51.415 90.1903 51.1654 90.0759C50.6578 89.8515 50.2654 89.6275 50.2886 89.5747C50.3118 89.5219 50.7418 89.6611 51.2494 89.8855C51.5034 90.0027 51.7266 90.0971 51.891 90.2151C52.061 90.3375 52.0714 90.4947 52.0414 90.4943Z" fill="#AA6550"/>
<path d="M51.1561 91.3517C51.1149 91.3945 50.7909 91.1417 50.3681 90.8745C49.9469 90.6045 49.5809 90.4181 49.6025 90.3625C49.6209 90.3101 50.0381 90.4161 50.4801 90.6989C50.9233 90.9797 51.1957 91.3129 51.1561 91.3517Z" fill="#AA6550"/>
<path d="M50.5809 92.0205C50.5553 92.0721 50.1649 91.9297 49.7089 91.7025C49.2529 91.4753 48.9041 91.2493 48.9301 91.1981C48.9557 91.1465 49.3461 91.2889 49.8021 91.5161C50.2577 91.7429 50.6065 91.9689 50.5809 92.0205Z" fill="#AA6550"/>
<path d="M55.3827 95.4562C55.3523 95.4586 55.2979 95.0262 55.2167 94.3282C55.1319 93.6314 55.0371 92.6642 54.8519 91.6142C54.7575 91.091 54.6471 90.5922 54.4687 90.181C54.3771 89.973 54.2643 89.8114 54.1023 89.6994C53.9415 89.5794 53.7783 89.4834 53.6259 89.4014C53.0071 89.0886 52.5879 88.9506 52.6019 88.9158C52.6067 88.9026 52.7139 88.9246 52.9035 88.9794C53.0927 89.0354 53.3667 89.1206 53.6915 89.2698C53.8531 89.3458 54.0279 89.4382 54.2027 89.559C54.3891 89.6758 54.5455 89.8842 54.6427 90.1002C54.8443 90.5398 54.9603 91.0466 55.0567 91.5778C55.2443 92.6418 55.3159 93.6134 55.3635 94.3158C55.4075 95.0182 55.4095 95.4542 55.3827 95.4562Z" fill="#AA6550"/>
<path d="M69.4274 83.3211C69.4206 83.3187 69.4454 83.2291 69.4982 83.0603C69.5582 82.8715 69.6358 82.6271 69.7322 82.3239C69.9258 81.6843 70.2306 80.7555 70.3718 79.5715C70.4366 78.9815 70.4586 78.3231 70.3438 77.6379C70.2286 76.9543 69.9822 76.2363 69.5518 75.5871C69.1282 74.9399 68.5002 74.3623 67.7054 74.0827C66.9082 73.7983 66.007 73.8223 65.0902 73.7723C64.1774 73.7243 63.225 73.5387 62.5294 72.9423C62.183 72.6491 61.9566 72.2399 61.8314 71.8371C61.6982 71.4343 61.6202 71.0355 61.4774 70.6771C61.213 69.9451 60.541 69.5051 59.8778 69.3487C59.2098 69.1819 58.5426 69.2327 57.9834 69.4055C57.4218 69.5759 56.9662 69.8931 56.6982 70.2707C56.4298 70.6483 56.3514 71.0659 56.3666 71.3903C56.3814 71.7191 56.4846 71.9623 56.5754 72.1091C56.6662 72.2579 56.7366 72.3211 56.7278 72.3295C56.7278 72.3295 56.6462 72.2783 56.5406 72.1323C56.4358 71.9883 56.3142 71.7391 56.2862 71.3955C56.2578 71.0563 56.3258 70.6155 56.6034 70.2043C56.879 69.7959 57.3554 69.4527 57.9394 69.2655C58.5206 69.0763 59.2134 69.0135 59.9202 69.1815C60.2722 69.2659 60.6266 69.4147 60.9398 69.6503C61.2514 69.8855 61.5094 70.2231 61.6562 70.6059C61.8098 70.9855 61.8906 71.3891 62.021 71.7743C62.145 72.1615 62.3474 72.5207 62.6642 72.7891C63.2998 73.3335 64.2082 73.5199 65.103 73.5647C66.0058 73.6159 66.9294 73.5883 67.7742 73.8911C68.6186 74.1911 69.277 74.8063 69.713 75.4827C70.1566 76.1619 70.4034 76.9047 70.515 77.6107C70.6262 78.3207 70.5942 78.9907 70.519 79.5899C70.3566 80.7911 70.0278 81.7167 69.8102 82.3503C69.6974 82.6671 69.6042 82.9107 69.539 83.0751C69.4718 83.2383 69.4342 83.3235 69.4274 83.3211Z" fill="#455A64"/>
<path d="M66.9912 87.1438C66.9496 87.1126 67.5272 86.6266 67.982 85.5554C68.2028 85.0234 68.3804 84.3478 68.3996 83.5866C68.4188 82.8278 68.2724 81.9842 67.8756 81.1994C67.6808 80.8038 67.4572 80.4266 67.2812 80.035C67.0996 79.6454 66.9936 79.2334 66.9336 78.8486C66.8148 78.0798 66.7592 77.3814 66.4936 76.8738C66.238 76.3614 65.862 76.0518 65.5684 75.9358C65.2728 75.8118 65.0824 75.8454 65.084 75.821C65.0836 75.8138 65.1284 75.8066 65.2164 75.7998C65.3036 75.7994 65.4368 75.8042 65.5968 75.8602C65.9192 75.9598 66.3372 76.273 66.624 76.8058C66.9248 77.3422 66.9948 78.0642 67.1228 78.8162C67.1876 79.195 67.29 79.5758 67.4672 79.9506C67.6392 80.3274 67.8624 80.7014 68.0624 81.1074C68.4744 81.9222 68.6228 82.8082 68.5912 83.5922C68.5608 84.3806 68.3616 85.0746 68.1168 85.6138C67.8668 86.153 67.5848 86.5474 67.3616 86.7906C67.2584 86.9194 67.1568 87.0006 67.096 87.0618C67.032 87.121 66.996 87.149 66.9912 87.1438Z" fill="#455A64"/>
<path d="M63.9089 97.0869C63.9181 97.1125 63.5349 97.2889 62.8969 97.5341C62.2593 97.7741 61.3573 98.0905 60.3101 98.2229C59.2617 98.3557 58.2889 98.2137 57.6425 97.9665C57.3181 97.8457 57.0697 97.7137 56.9093 97.6069C56.7481 97.5009 56.6685 97.4297 56.6757 97.4189C56.6953 97.3865 57.0469 97.6285 57.6897 97.8269C58.3281 98.0313 59.2657 98.1445 60.2849 98.0161C61.3049 97.8873 62.2013 97.5989 62.8485 97.3949C63.4957 97.1865 63.8985 97.0585 63.9089 97.0869Z" fill="#FAFAFA"/>
<path d="M72.6614 99.8975C72.6154 99.9115 72.5758 99.3267 72.0738 98.5883C71.5882 97.8543 70.583 97.0391 69.2722 96.6851C67.9562 96.3367 66.6974 96.4078 65.8058 96.4614C64.9086 96.5242 64.3522 96.5771 64.3486 96.5455C64.347 96.5315 64.4838 96.5007 64.7326 96.4587C64.9818 96.4167 65.3434 96.3635 65.793 96.3147C66.6858 96.2239 67.9662 96.1247 69.3266 96.4843C70.6894 96.8519 71.7234 97.7223 72.1966 98.5079C72.4382 98.8995 72.5654 99.2543 72.6162 99.5047C72.6694 99.7547 72.6718 99.8963 72.6614 99.8975Z" fill="#FAFAFA"/>
<path d="M68.1737 109.064C68.1353 109.076 68.0029 108.577 67.6333 107.844C67.4521 107.477 67.1937 107.061 66.8729 106.626C66.5429 106.198 66.1441 105.754 65.6757 105.342C65.2013 104.935 64.7065 104.603 64.2361 104.336C63.7601 104.079 63.3125 103.882 62.9229 103.754C62.1457 103.491 61.6337 103.43 61.6397 103.39C61.6413 103.376 61.7697 103.383 62.0013 103.409C62.1177 103.42 62.2593 103.439 62.4205 103.478C62.5821 103.515 62.7693 103.546 62.9673 103.614C63.3705 103.726 63.8349 103.914 64.3273 104.168C64.8141 104.432 65.3257 104.768 65.8121 105.185C66.2929 105.608 66.6977 106.067 67.0273 106.512C67.3477 106.964 67.5981 107.398 67.7661 107.781C67.8609 107.967 67.9185 108.148 67.9773 108.303C68.0385 108.458 68.0769 108.595 68.1041 108.709C68.1621 108.934 68.1877 109.06 68.1737 109.064Z" fill="#FAFAFA"/>
<path d="M61.821 117.891C61.783 117.881 61.9574 117.279 62.0858 116.284C62.1534 115.787 62.1906 115.19 62.191 114.529C62.1806 113.867 62.1266 113.14 62.001 112.386C61.8674 111.633 61.6746 110.93 61.4626 110.303C61.2406 109.679 61.0054 109.129 60.7754 108.684C60.321 107.789 59.9554 107.281 59.9878 107.258C59.9994 107.25 60.0978 107.371 60.2662 107.599C60.4382 107.825 60.6598 108.171 60.9058 108.615C61.1554 109.058 61.4082 109.609 61.6434 110.239C61.8686 110.872 62.0702 111.586 62.2062 112.351C62.3342 113.117 62.383 113.857 62.383 114.529C62.3722 115.201 62.3186 115.805 62.2318 116.306C62.1482 116.806 62.0558 117.207 61.969 117.477C61.8866 117.748 61.8346 117.895 61.821 117.891Z" fill="#FAFAFA"/>
<path d="M52.7866 108.688C52.7838 108.65 53.2162 108.624 53.8858 108.456C54.5546 108.29 55.4542 107.946 56.3226 107.353C57.1886 106.755 57.8326 106.038 58.2266 105.474C58.6234 104.909 58.8038 104.515 58.8378 104.531C58.851 104.537 58.8158 104.639 58.7402 104.821C58.6682 105.004 58.5358 105.257 58.349 105.556C57.9786 106.154 57.3318 106.91 56.4406 107.524C55.5474 108.136 54.6098 108.468 53.9186 108.599C53.573 108.666 53.289 108.699 53.0922 108.701C52.8958 108.706 52.7874 108.702 52.7866 108.688Z" fill="#FAFAFA"/>
<path d="M57.2999 99.6717C57.3091 99.6809 57.2439 99.7653 57.1063 99.8989C56.9691 100.033 56.7523 100.21 56.4603 100.392C55.8795 100.762 54.9671 101.105 53.9223 101.216C52.8779 101.328 51.9315 101.24 51.2575 101.163C50.5819 101.081 50.1691 101.005 50.1719 100.978C50.1751 100.948 50.5951 100.972 51.2707 101.017C51.9455 101.056 52.8811 101.118 53.8995 101.009C54.9171 100.9 55.8035 100.592 56.3863 100.265C56.9739 99.9429 57.2751 99.6441 57.2999 99.6717Z" fill="#FAFAFA"/>
<path d="M67.0226 91.6024C67.0282 91.6156 66.8886 91.688 66.631 91.806C66.3734 91.924 65.9978 92.0876 65.5254 92.2732C64.585 92.6364 63.2374 93.1168 61.6694 93.1948C60.0978 93.2688 58.6898 92.7884 57.8538 92.1952C57.4318 91.9024 57.135 91.6064 56.9586 91.382C56.7806 91.1584 56.7034 91.0204 56.7126 91.014C56.7474 90.982 57.0886 91.5332 57.935 92.0724C58.7666 92.6164 60.1334 93.058 61.6606 92.9868C63.1886 92.9116 64.5254 92.4624 65.4746 92.1352C65.9166 91.9768 66.2922 91.8416 66.6006 91.7308C66.867 91.636 67.017 91.5888 67.0226 91.6024Z" fill="#FAFAFA"/>
<path d="M50.0749 108.939C50.0397 108.947 49.9273 108.456 49.6525 107.697C49.3793 106.938 48.9137 105.919 48.2201 104.903C47.5233 103.889 46.7417 103.086 46.1329 102.557C45.5249 102.025 45.1081 101.743 45.1281 101.713C45.1361 101.701 45.2469 101.761 45.4413 101.881C45.6377 101.998 45.9077 102.189 46.2277 102.444C46.8681 102.951 47.6825 103.753 48.3921 104.785C49.0981 105.82 49.5513 106.869 49.7917 107.65C49.9133 108.04 49.9937 108.361 50.0317 108.587C50.0729 108.811 50.0889 108.936 50.0749 108.939Z" fill="#FAFAFA"/>
<path d="M43.7582 113.516C43.7266 113.513 43.7694 112.982 43.8134 112.124C43.8578 111.266 43.891 110.079 43.8486 108.77C43.8046 107.461 43.693 106.279 43.5922 105.426C43.4922 104.573 43.4142 104.046 43.4454 104.04C43.4594 104.037 43.4958 104.166 43.5494 104.402C43.6042 104.637 43.6694 104.98 43.7382 105.406C43.877 106.258 44.0126 107.446 44.0566 108.764C44.0994 110.081 44.0422 111.275 43.9602 112.134C43.9194 112.564 43.877 112.911 43.8378 113.149C43.8002 113.387 43.7726 113.518 43.7582 113.516Z" fill="#FAFAFA"/>
<path d="M42.6748 102.542C42.692 102.558 42.438 102.872 41.9484 103.301C41.4604 103.73 40.7212 104.258 39.8216 104.687C38.9208 105.114 38.0444 105.353 37.4032 105.461C36.7612 105.569 36.3572 105.568 36.3556 105.545C36.3416 105.475 37.962 105.352 39.732 104.499C41.5108 103.666 42.6296 102.487 42.6748 102.542Z" fill="#FAFAFA"/>
<path d="M41.7875 97.5487C41.8003 97.5679 41.5171 97.7887 40.9983 98.0443C40.4815 98.3003 39.7175 98.5683 38.8391 98.6819C37.9599 98.7927 37.1531 98.7247 36.5887 98.6071C36.0223 98.4903 35.6931 98.3479 35.7003 98.3259C35.7115 98.2563 37.0895 98.7071 38.8127 98.4755C40.5387 98.2671 41.7595 97.4843 41.7875 97.5487Z" fill="#FAFAFA"/>
<path d="M40.4434 91.0184C40.4546 91.0404 40.1902 91.2124 39.7194 91.4072C39.2502 91.6024 38.5678 91.8028 37.7918 91.8824C37.0154 91.9596 36.3066 91.8996 35.8078 91.8024C35.3078 91.7056 35.0138 91.5896 35.0206 91.5664C35.033 91.4996 36.2518 91.8376 37.7706 91.6752C39.2914 91.5304 40.4182 90.9556 40.4434 91.0184Z" fill="#FAFAFA"/>
<path d="M71.2195 115.807C71.2183 115.825 70.9531 115.807 70.4779 115.839C70.0035 115.872 69.3183 115.975 68.5075 116.235C67.6951 116.492 66.7671 116.907 65.7587 117.419C64.7467 117.921 63.6411 118.516 62.3859 118.93C61.1303 119.349 59.8523 119.462 58.7135 119.389C57.5719 119.313 56.5639 119.053 55.7599 118.742C54.9563 118.426 54.3459 118.079 53.9507 117.805C53.7463 117.678 53.6051 117.553 53.5035 117.479C53.4043 117.4 53.3543 117.357 53.3587 117.351C53.3867 117.303 54.2079 118.014 55.8115 118.604C56.6099 118.893 57.6043 119.133 58.7251 119.197C59.8435 119.258 61.0915 119.142 62.3211 118.732C63.5527 118.326 64.6547 117.741 65.6735 117.247C66.6891 116.743 67.6359 116.337 68.4643 116.095C69.2919 115.848 69.9931 115.767 70.4743 115.758C70.7151 115.753 70.9027 115.762 71.0283 115.776C71.1543 115.789 71.2199 115.799 71.2195 115.807Z" fill="#FAFAFA"/>
<path d="M71.5089 110.151C71.5277 110.202 70.6229 110.569 69.4453 110.799C68.2681 111.034 67.2921 111.039 67.2901 110.985C67.2861 110.924 68.244 110.827 69.4048 110.595C70.5664 110.368 71.4897 110.094 71.5089 110.151Z" fill="#FAFAFA"/>
<path d="M72.1941 120.486C72.1965 120.493 72.1293 120.521 72.0001 120.569C71.8473 120.622 71.6593 120.688 71.4301 120.768C70.9349 120.939 70.2089 121.161 69.3049 121.409C67.4981 121.908 64.9593 122.462 62.1141 122.791C59.2673 123.115 56.669 123.15 54.7962 123.073C53.8594 123.036 53.1021 122.984 52.5809 122.929C52.3397 122.903 52.1417 122.882 51.9809 122.864C51.8441 122.847 51.7726 122.834 51.773 122.827C51.7734 122.82 51.8466 122.818 51.9842 122.822C52.1454 122.829 52.3445 122.837 52.5865 122.848C53.1089 122.878 53.8653 122.907 54.8001 122.925C56.6689 122.964 59.2553 122.906 62.0905 122.584C64.9241 122.256 67.4561 121.727 69.2677 121.266C70.1737 121.037 70.9045 120.837 71.4061 120.69C71.6393 120.625 71.8313 120.572 71.9869 120.528C72.1209 120.494 72.1921 120.479 72.1941 120.486Z" fill="#FAFAFA"/>
<g opacity="0.3">
<path d="M60.9141 118.278C62.0097 118.691 63.1637 118.997 64.3345 118.986C65.5057 118.974 66.7013 118.622 67.5797 117.847C68.6521 116.901 69.1313 115.466 69.5145 114.088C70.1673 111.742 70.7441 107.194 70.6725 104.761C70.6725 104.761 68.3489 109.566 67.5141 111.036C66.7753 112.337 66.0169 113.664 65.1217 115.559C64.4001 117.087 62.6765 118.138 60.9141 118.278Z" fill="black"/>
</g>
<g opacity="0.3">
<path d="M49.3399 98.1045C47.7423 101.683 47.7795 105.954 49.4387 109.505L52.0095 107.215L49.3399 98.1045Z" fill="black"/>
</g>
<path d="M170.627 177.325C170.898 176.25 170.188 175.176 169.395 174.402C168.602 173.628 167.654 172.935 167.238 171.908C166.563 170.244 167.445 168.078 166.302 166.693C165.63 165.878 164.431 165.611 163.834 164.739C163.521 164.282 163.417 163.719 163.291 163.179C162.653 160.425 161.258 157.851 159.301 155.812C159.179 158.268 159.735 160.754 160.89 162.924C161.355 163.797 161.924 164.647 162.082 165.623C162.338 167.207 161.462 168.846 161.861 170.401C162.316 172.18 164.323 173.36 164.429 175.193C164.518 176.743 163.175 178.111 163.284 179.659C163.331 180.318 163.641 180.928 163.984 181.493C165.194 183.478 166.962 184.84 169.63 184.781L172.899 184.877L170.627 177.325Z" fill="#1877F2"/>
<g opacity="0.3">
<path d="M170.627 177.325C170.898 176.25 170.188 175.176 169.395 174.402C168.602 173.628 167.654 172.935 167.238 171.908C166.563 170.244 167.445 168.078 166.302 166.693C165.63 165.878 164.431 165.611 163.834 164.739C163.521 164.282 163.417 163.719 163.291 163.179C162.653 160.425 161.258 157.851 159.301 155.812C159.179 158.268 159.735 160.754 160.89 162.924C161.355 163.797 161.924 164.647 162.082 165.623C162.338 167.207 161.462 168.846 161.861 170.401C162.316 172.18 164.323 173.36 164.429 175.193C164.518 176.743 163.175 178.111 163.284 179.659C163.331 180.318 163.641 180.928 163.984 181.493C165.194 183.478 166.962 184.84 169.63 184.781L172.899 184.877L170.627 177.325Z" fill="black"/>
</g>
<path d="M173.562 184.958C173.562 184.958 173.64 184.955 173.79 184.96C173.941 184.955 174.165 184.946 174.455 184.892C174.744 184.841 175.099 184.755 175.5 184.602C175.899 184.447 176.352 184.228 176.777 183.873C176.98 183.689 177.179 183.465 177.28 183.182C177.381 182.898 177.399 182.568 177.414 182.231C177.426 181.892 177.421 181.533 177.477 181.161C177.529 180.787 177.673 180.412 177.876 180.065C178.265 179.367 178.883 178.729 179.067 177.849C179.273 176.979 179.109 176.022 178.945 175.039C178.784 174.063 178.618 172.96 178.997 171.893C179.351 170.836 180.059 169.904 180.392 168.79C180.727 167.671 180.556 166.439 180.62 165.177C180.649 164.546 180.77 163.891 181.047 163.293C181.316 162.694 181.679 162.145 181.952 161.551C182.504 160.359 182.598 158.986 182.747 157.611C182.819 156.921 182.893 156.224 182.967 155.52C183.039 154.822 183.099 154.091 183.323 153.393C183.524 152.692 183.816 152.018 184.099 151.344C184.237 151.007 184.382 150.667 184.46 150.323C184.515 149.979 184.535 149.597 184.554 149.232C184.586 148.493 184.551 147.749 184.455 147.004C184.363 146.259 184.222 145.511 184.136 144.746C184.131 144.701 184.125 144.656 184.12 144.615L184.27 144.697C183.605 145.035 183.035 145.536 182.593 146.13C182.143 146.72 181.814 147.391 181.551 148.076C181.023 149.455 180.834 150.912 180.564 152.327C180.301 153.738 179.949 155.148 179.213 156.353C178.848 156.951 178.415 157.486 178.045 158.045C177.675 158.601 177.362 159.195 177.271 159.832C177.082 161.119 177.845 162.337 177.695 163.641C177.637 164.285 177.384 164.879 177.081 165.41C176.779 165.945 176.429 166.433 176.101 166.918C175.773 167.403 175.465 167.889 175.242 168.401C175.015 168.911 174.892 169.448 174.857 169.987C174.78 171.064 174.938 172.112 174.858 173.121C174.79 174.135 174.435 175.051 174.039 175.859C173.639 176.67 173.199 177.397 172.832 178.098C172.647 178.447 172.476 178.79 172.339 179.129C172.195 179.463 172.123 179.81 172.056 180.139C171.949 180.805 171.956 181.429 172.025 181.978C172.159 183.085 172.563 183.883 172.925 184.336C173.292 184.793 173.576 184.941 173.562 184.958C173.562 184.958 173.497 184.917 173.374 184.828C173.312 184.785 173.236 184.729 173.159 184.647C173.08 184.568 172.979 184.483 172.893 184.363C172.515 183.911 172.093 183.108 171.944 181.989C171.868 181.433 171.855 180.802 171.958 180.123C172.023 179.787 172.093 179.434 172.239 179.089C172.377 178.743 172.545 178.397 172.729 178.044C173.093 177.337 173.529 176.607 173.919 175.801C174.308 174.998 174.65 174.099 174.711 173.11C174.786 172.123 174.624 171.078 174.697 169.975C174.73 169.425 174.857 168.862 175.089 168.335C175.318 167.806 175.63 167.311 175.958 166.822C176.286 166.333 176.633 165.847 176.926 165.323C177.221 164.803 177.46 164.233 177.513 163.623C177.665 162.398 176.896 161.188 177.081 159.805C177.177 159.125 177.507 158.503 177.882 157.937C178.258 157.367 178.688 156.834 179.043 156.249C179.757 155.078 180.103 153.695 180.363 152.289C180.631 150.883 180.819 149.41 181.357 148.003C181.625 147.304 181.962 146.616 182.427 146.005C182.883 145.39 183.479 144.865 184.177 144.511L184.31 144.443L184.327 144.593C184.332 144.634 184.337 144.678 184.343 144.723C184.428 145.479 184.569 146.225 184.662 146.979C184.759 147.732 184.794 148.491 184.762 149.241C184.741 149.619 184.725 149.98 184.663 150.365C184.577 150.743 184.429 151.083 184.289 151.423C184.005 152.1 183.717 152.765 183.519 153.451C183.3 154.132 183.241 154.836 183.168 155.543C183.093 156.247 183.019 156.943 182.945 157.633C182.795 159.001 182.7 160.397 182.127 161.631C181.844 162.242 181.481 162.79 181.219 163.37C180.951 163.946 180.835 164.567 180.804 165.187C180.735 166.423 180.909 167.673 180.559 168.839C180.207 169.993 179.495 170.92 179.151 171.944C178.781 172.968 178.935 174.036 179.092 175.015C179.249 175.997 179.415 176.974 179.197 177.879C178.995 178.8 178.359 179.444 177.978 180.123C177.777 180.462 177.638 180.816 177.585 181.177C177.528 181.537 177.53 181.893 177.514 182.234C177.495 182.575 177.477 182.908 177.366 183.211C177.253 183.516 177.042 183.746 176.831 183.933C176.39 184.294 175.929 184.509 175.523 184.659C175.115 184.809 174.755 184.888 174.463 184.933C173.874 185.029 173.562 184.958 173.562 184.958Z" fill="#263238"/>
<path d="M183.671 146.396C183.674 146.396 183.671 146.431 183.661 146.499C183.647 146.578 183.631 146.676 183.611 146.798C183.561 147.06 183.501 147.445 183.39 147.943C183.273 148.444 182.989 149 182.752 149.674C182.504 150.346 182.253 151.123 182.022 151.995C181.788 152.866 181.582 153.832 181.364 154.873C181.141 155.905 180.908 157.05 180.339 158.12C180.074 158.658 179.78 159.194 179.552 159.769C179.319 160.34 179.197 160.96 179.109 161.602C178.963 162.891 178.731 164.231 178.429 165.576C177.782 168.259 177.167 170.814 176.606 173.141C176.021 175.455 175.493 177.54 175.049 179.298C174.601 181.036 174.238 182.449 173.981 183.445C173.854 183.921 173.754 184.296 173.681 184.57C173.647 184.688 173.62 184.784 173.598 184.861C173.578 184.926 173.566 184.959 173.563 184.958C173.559 184.958 173.564 184.923 173.577 184.856C173.594 184.777 173.615 184.68 173.64 184.559C173.704 184.284 173.792 183.905 173.903 183.425C174.143 182.425 174.485 181.007 174.906 179.262C175.338 177.501 175.851 175.412 176.42 173.094C176.975 170.768 177.585 168.213 178.225 165.531C178.527 164.185 178.757 162.869 178.907 161.573C178.996 160.928 179.125 160.284 179.367 159.695C179.603 159.106 179.902 158.567 180.167 158.035C180.731 156.984 180.962 155.873 181.195 154.837C181.42 153.799 181.635 152.829 181.879 151.956C182.12 151.083 182.383 150.305 182.643 149.634C182.893 148.957 183.186 148.408 183.312 147.923C183.432 147.436 183.507 147.047 183.569 146.79C183.598 146.67 183.621 146.573 183.64 146.495C183.657 146.428 183.667 146.395 183.671 146.396Z" fill="#263238"/>
<path d="M174.139 184.965C176.266 183.684 176.857 179.829 175.953 177.516C175.05 175.202 173.479 173.093 173.225 170.622C173.029 168.723 173.64 166.77 173.187 164.915C172.575 162.412 170.118 160.485 170.131 157.908C170.139 156.463 170.953 155.098 170.88 153.654C170.789 151.884 169.422 150.486 168.571 148.93C167.269 146.549 167.168 143.726 166.712 141.05C166.256 138.375 165.219 135.513 162.838 134.21C162.5 136.486 161.911 138.046 162.116 141.125C162.19 142.231 163.487 144.341 163.675 146.765C163.788 148.213 163.869 149.664 163.965 151.114C164.059 152.524 164.159 153.96 164.673 155.278C165.066 156.287 165.694 157.202 165.988 158.245C166.541 160.207 165.841 162.34 166.289 164.328C166.669 166.012 167.845 167.457 168.093 169.166C168.442 171.567 166.901 174.073 167.71 176.36C168.111 177.495 169.052 178.403 169.324 179.576C169.535 180.486 169.316 181.452 169.508 182.366C169.817 183.84 172.637 184.969 174.138 184.869" fill="#1877F2"/>
<path d="M163.439 136.463C163.443 136.462 163.453 136.504 163.471 136.588C163.489 136.682 163.512 136.804 163.541 136.958C163.605 137.282 163.677 137.768 163.802 138.38C163.934 138.99 164.271 139.688 164.547 140.541C164.835 141.387 165.123 142.366 165.379 143.463C165.639 144.559 165.859 145.774 166.088 147.075C166.326 148.374 166.56 149.77 167.211 151.105C167.514 151.78 167.859 152.464 168.123 153.205C168.394 153.947 168.522 154.75 168.601 155.555C168.725 157.172 168.947 158.821 169.258 160.508C169.925 163.872 170.56 167.077 171.138 169.994C171.735 172.903 172.273 175.524 172.727 177.73C173.169 179.924 173.529 181.703 173.78 182.95C173.898 183.556 173.991 184.032 174.056 184.371C174.084 184.525 174.106 184.647 174.123 184.742C174.137 184.825 174.142 184.869 174.139 184.869C174.135 184.87 174.123 184.828 174.102 184.746C174.08 184.652 174.051 184.531 174.015 184.379C173.941 184.042 173.835 183.569 173.701 182.966C173.434 181.723 173.053 179.948 172.583 177.76C172.117 175.556 171.564 172.938 170.95 170.032C170.366 167.115 169.725 163.91 169.053 160.545C168.742 158.859 168.518 157.185 168.398 155.576C168.321 154.774 168.197 153.995 167.935 153.271C167.678 152.545 167.339 151.864 167.035 151.183C166.38 149.829 166.146 148.399 165.917 147.105C165.696 145.802 165.485 144.59 165.235 143.496C164.989 142.402 164.713 141.424 164.436 140.578C164.173 139.728 163.846 139.024 163.723 138.398C163.608 137.775 163.55 137.293 163.499 136.965C163.479 136.81 163.462 136.687 163.449 136.592C163.439 136.507 163.436 136.464 163.439 136.463Z" fill="#263238"/>
<path d="M138.655 185.13L86.0424 185.099C79.7148 185.096 74.5872 179.964 74.5884 173.636L74.614 41.7348C74.6152 35.4036 79.75 30.2728 86.0812 30.2764L138.694 30.3072C145.022 30.3112 150.149 35.4424 150.148 41.77L150.122 173.672C150.121 180.003 144.986 185.134 138.655 185.13Z" fill="#263238"/>
<path d="M138.639 34.9732L128.438 34.9672C127.07 34.9664 125.961 36.1252 125.961 37.5552L125.96 39.4056C125.96 40.8356 124.85 41.9944 123.483 41.9936L103.599 41.982C102.231 41.9812 101.122 40.8212 101.123 39.3912L101.123 37.5408C101.123 36.1108 100.014 34.9508 98.6463 34.95L95.0587 34.9476L86.1307 34.9424C81.6967 34.94 78.1007 38.5332 78.0999 42.9672L78.0747 171.712C78.0739 176.144 81.6647 179.738 86.0963 179.741L138.604 179.772C143.038 179.774 146.634 176.181 146.635 171.747L146.66 43.0012C146.661 38.5692 143.07 34.9756 138.639 34.9732Z" fill="white"/>
<path d="M140.19 47.9733C140.19 48.0077 138.863 48.0469 137.227 48.0601C135.59 48.0737 134.264 48.0565 134.264 48.0221C134.263 47.9877 135.59 47.9485 137.226 47.9353C138.862 47.9217 140.189 47.9389 140.19 47.9733Z" fill="#263238"/>
<path d="M140.203 49.49C140.203 49.5244 138.877 49.5636 137.24 49.5768C135.604 49.5904 134.277 49.5732 134.277 49.5388C134.276 49.5044 135.603 49.4652 137.24 49.452C138.876 49.4384 140.203 49.4552 140.203 49.49Z" fill="#263238"/>
<path d="M140.216 51.0056C140.216 51.04 138.889 51.0792 137.253 51.0924C135.616 51.106 134.29 51.0888 134.29 51.0544C134.289 51.02 135.616 50.9808 137.252 50.9676C138.888 50.954 140.215 50.9712 140.216 51.0056Z" fill="#263238"/>
<path d="M86.2908 52.736C86.2932 52.7336 86.3352 52.7312 86.414 52.728C86.5112 52.7248 86.6236 52.7212 86.7568 52.7168C87.08 52.7092 87.5032 52.6992 88.022 52.6868L87.9868 52.7224C87.9824 52.442 87.9772 52.1356 87.972 51.8048C87.9736 51.6344 87.9576 51.4736 87.974 51.2764C88.008 51.08 88.1832 50.9064 88.3984 50.8864C88.6024 50.8824 88.782 50.8732 89.0028 50.8832C89.2308 50.9112 89.4248 51.1304 89.418 51.372C89.4228 51.8 89.428 52.2468 89.4332 52.7104L89.3744 52.6528C89.8868 52.6476 90.4208 52.6424 90.9708 52.6368L90.91 52.6984C90.9044 52.0556 90.8984 51.3908 90.8924 50.7096C90.8908 50.5396 90.8896 50.3708 90.888 50.2032C90.8872 50.0468 90.7924 49.9424 90.6636 49.826C90.4276 49.5932 90.1944 49.3636 89.9656 49.1384C89.7372 48.9128 89.5124 48.6912 89.2924 48.474C89.1824 48.3656 89.0736 48.258 88.9664 48.1516C88.8544 48.0436 88.766 47.932 88.6364 47.9052C88.5104 47.8712 88.3716 47.898 88.27 47.9752C88.1732 48.0568 88.0704 48.1724 87.9728 48.2672C87.7764 48.4656 87.5852 48.6584 87.4 48.8452C87.0396 49.2196 86.6644 49.5612 86.3916 49.8844C86.2768 50.0628 86.3196 50.2812 86.3112 50.48C86.3108 50.6776 86.3104 50.8656 86.31 51.0424C86.308 51.3872 86.306 51.6896 86.3044 51.9484C86.3016 52.18 86.2996 52.3712 86.298 52.528C86.296 52.6608 86.2936 52.7328 86.2908 52.736C86.2876 52.7392 86.2844 52.6732 86.28 52.544C86.2756 52.3896 86.2704 52.2016 86.264 51.9736C86.258 51.7124 86.2512 51.408 86.2432 51.0604C86.24 50.88 86.2364 50.6884 86.2324 50.4868C86.2308 50.3848 86.2292 50.28 86.2276 50.1728C86.2268 50.0596 86.256 49.9424 86.3156 49.8388C86.6108 49.4768 86.9632 49.1568 87.3264 48.7716C87.51 48.5836 87.6996 48.3892 87.8948 48.1892C87.9972 48.0888 88.0808 47.9888 88.2028 47.884C88.3304 47.786 88.5056 47.7508 88.6656 47.7928C88.8352 47.8304 88.946 47.9696 89.0488 48.0668C89.1568 48.1724 89.266 48.2796 89.3764 48.3876C89.5972 48.604 89.8224 48.8248 90.0516 49.0496C90.2808 49.2748 90.514 49.5036 90.7508 49.736C90.8068 49.7952 90.8744 49.8456 90.9292 49.9292C90.9808 50.0088 91.0104 50.1028 91.0128 50.1984C91.0144 50.3672 91.016 50.5368 91.0172 50.7076C91.0224 51.3888 91.0276 52.0536 91.0324 52.6964L91.0328 52.7576L90.9716 52.758C90.4216 52.7616 89.888 52.7648 89.3752 52.768L89.3168 52.7684L89.3164 52.7104C89.314 52.2468 89.3116 51.8 89.3092 51.372C89.316 51.1792 89.166 51.0092 88.9868 50.9844C88.8032 50.9748 88.5868 50.9812 88.408 50.9828C88.2364 50.9968 88.0932 51.1348 88.0636 51.2932C88.0484 51.4536 88.06 51.6408 88.0568 51.8032C88.0568 52.134 88.0572 52.4404 88.0572 52.7208V52.7568L88.022 52.7564C87.4944 52.7528 87.0644 52.7496 86.7356 52.7472C86.6056 52.7448 86.4956 52.7432 86.4004 52.7416C86.326 52.7404 86.2884 52.7384 86.2908 52.736Z" fill="#263238"/>
<path d="M135.586 70.9302H88.2014C85.8302 70.9302 83.9082 69.0082 83.9082 66.637V65.0422C83.9082 62.671 85.8302 60.749 88.2014 60.749H135.587C137.958 60.749 139.88 62.671 139.88 65.0422V66.637C139.879 69.0082 137.957 70.9302 135.586 70.9302Z" fill="#F5F5F5"/>
<path d="M135.586 70.9303C135.586 70.9303 135.696 70.9175 135.908 70.9035C136.119 70.8879 136.434 70.8395 136.831 70.7239C137.223 70.5951 137.699 70.3867 138.178 70.0155C138.657 69.6507 139.132 69.1127 139.454 68.3971C139.61 68.0399 139.743 67.6431 139.791 67.2107C139.848 66.7819 139.828 66.3207 139.83 65.8395C139.822 65.3583 139.853 64.8543 139.764 64.3479C139.678 63.8407 139.496 63.3283 139.208 62.8555C138.64 61.9123 137.624 61.1207 136.384 60.8927C135.769 60.7759 135.11 60.8299 134.438 60.8191C133.765 60.8203 133.076 60.8215 132.369 60.8227C121.061 60.8307 105.448 60.8411 88.2041 60.8531C87.1493 60.8523 86.1125 61.2643 85.3537 61.9755C84.5893 62.6807 84.1117 63.6719 84.0293 64.6939C83.9941 65.2011 84.0193 65.7371 84.0113 66.2543C83.9989 66.7803 84.0265 67.2795 84.1701 67.7687C84.4409 68.7415 85.0749 69.5951 85.9041 70.1403C86.3169 70.4159 86.7805 70.6107 87.2597 70.7183C87.7401 70.8319 88.2293 70.8323 88.7325 70.8291C89.7305 70.8295 90.7189 70.8299 91.6969 70.8303C93.6529 70.8315 95.5677 70.8327 97.4365 70.8339C104.909 70.8423 111.638 70.8499 117.292 70.8563C122.94 70.8703 127.511 70.8815 130.678 70.8895C132.254 70.8979 133.479 70.9047 134.317 70.9091C134.729 70.9135 135.044 70.9171 135.264 70.9195C135.477 70.9231 135.586 70.9303 135.586 70.9303C135.586 70.9303 135.477 70.9375 135.264 70.9411C135.045 70.9435 134.729 70.9471 134.318 70.9515C133.48 70.9559 132.254 70.9627 130.678 70.9711C127.512 70.9791 122.94 70.9903 117.292 71.0043C111.639 71.0107 104.909 71.0183 97.4369 71.0267C95.5685 71.0279 93.6537 71.0291 91.6973 71.0303C90.7193 71.0307 89.7309 71.0311 88.7329 71.0315C88.2397 71.0351 87.7177 71.0359 87.2145 70.9171C86.7117 70.8047 86.2253 70.6003 85.7921 70.3115C84.9217 69.7403 84.2565 68.8459 83.9717 67.8247C83.8205 67.3195 83.7917 66.7691 83.8045 66.2547C83.8125 65.7299 83.7861 65.2187 83.8225 64.6775C83.9085 63.6051 84.4097 62.5639 85.2121 61.8239C86.0077 61.0775 87.0977 60.6443 88.2041 60.6455C105.448 60.6575 121.061 60.6683 132.369 60.6759C133.076 60.6771 133.765 60.6783 134.438 60.6795C135.107 60.6935 135.767 60.6399 136.408 60.7631C137.688 61.0035 138.728 61.8235 139.308 62.7955C139.601 63.2827 139.786 63.8099 139.87 64.3307C139.959 64.8551 139.924 65.3615 139.929 65.8399C139.925 66.3195 139.942 66.7819 139.881 67.2231C139.829 67.6643 139.69 68.0679 139.528 68.4307C139.194 69.1575 138.706 69.6995 138.216 70.0647C137.727 70.4359 137.242 70.6403 136.844 70.7639C136.44 70.8739 136.123 70.9159 135.91 70.9247C135.696 70.9319 135.586 70.9303 135.586 70.9303Z" fill="#263238"/>
<path d="M136.45 65.5967C136.43 65.5975 136.432 65.4327 136.353 65.1563C136.275 64.8851 136.086 64.4907 135.677 64.1895C135.282 63.8871 134.634 63.7207 134.011 63.9551C133.392 64.1703 132.86 64.8287 132.866 65.5967C132.859 66.3647 133.392 67.0235 134.011 67.2387C134.635 67.4731 135.282 67.3063 135.678 67.0043C136.087 66.7031 136.276 66.3083 136.354 66.0375C136.432 65.7611 136.43 65.5959 136.45 65.5967C136.458 65.5967 136.462 65.6371 136.466 65.7155C136.47 65.7935 136.463 65.9103 136.432 66.0567C136.375 66.3455 136.198 66.7783 135.767 67.1211C135.351 67.4639 134.643 67.6687 133.946 67.4191C133.255 67.1919 132.65 66.4575 132.659 65.5967C132.651 64.7359 133.255 64.0023 133.946 63.7747C134.643 63.5251 135.351 63.7295 135.767 64.0727C136.198 64.4151 136.376 64.8479 136.432 65.1371C136.463 65.2835 136.47 65.4003 136.466 65.4783C136.463 65.5563 136.458 65.5967 136.45 65.5967Z" fill="#263238"/>
<path d="M137.466 68.7762C137.423 68.8154 137.019 68.4466 136.563 67.953C136.107 67.459 135.772 67.0274 135.814 66.9882C135.856 66.949 136.26 67.3178 136.716 67.8118C137.172 68.3054 137.508 68.7374 137.466 68.7762Z" fill="#263238"/>
<path d="M91.4647 64.8211H90.4663V64.5615H92.7635V64.8211H91.7651V67.4027H91.4647V64.8211Z" fill="#E0E0E0"/>
<path d="M94.8171 66.4248H93.0311C93.0635 66.8712 93.4047 67.1676 93.8711 67.1676C94.1311 67.1676 94.3623 67.0744 94.5247 66.8876L94.6871 67.0744C94.4963 67.3016 94.1999 67.4236 93.8631 67.4236C93.1971 67.4236 92.7427 66.9688 92.7427 66.336C92.7427 65.7028 93.1851 65.252 93.7859 65.252C94.3863 65.252 94.8207 65.6944 94.8207 66.336C94.8211 66.3596 94.8171 66.392 94.8171 66.4248ZM93.0311 66.2096H94.5451C94.5087 65.7916 94.2043 65.4996 93.7863 65.4996C93.3723 65.4992 93.0679 65.7916 93.0311 66.2096Z" fill="#E0E0E0"/>
<path d="M96.7084 67.4028L96.0308 66.51L95.3488 67.4028H95.0244L95.8684 66.3068L95.0648 65.2676H95.3896L96.0312 66.1036L96.6724 65.2676H96.9892L96.1856 66.3068L97.038 67.4028H96.7084Z" fill="#E0E0E0"/>
<path d="M98.6402 67.2728C98.5266 67.3744 98.3562 67.4232 98.1894 67.4232C97.7878 67.4232 97.5642 67.196 97.5642 66.802V65.5112H97.1826V65.2676H97.5642V64.8008H97.8522V65.2676H98.5018V65.5112H97.8522V66.7856C97.8522 67.0372 97.9822 67.1752 98.2214 67.1752C98.339 67.1752 98.457 67.1388 98.5382 67.0656L98.6402 67.2728Z" fill="#E0E0E0"/>
<path d="M98.5207 79.3076H86.2695V91.5588H98.5207V79.3076Z" fill="#1877F2"/>
<path d="M122.088 80.6265C122.088 80.6841 117.992 80.7305 112.94 80.7305C107.886 80.7305 103.79 80.6837 103.79 80.6265C103.79 80.5693 107.886 80.5225 112.94 80.5225C117.992 80.5221 122.088 80.5689 122.088 80.6265Z" fill="#1877F2"/>
<path d="M136.679 84.3813C136.679 84.4389 129.316 84.4853 120.235 84.4853C111.151 84.4853 103.79 84.4385 103.79 84.3813C103.79 84.3237 111.152 84.2773 120.235 84.2773C129.316 84.2773 136.679 84.3237 136.679 84.3813Z" fill="#263238"/>
<path d="M136.292 87.064C136.292 87.1216 129.016 87.168 120.042 87.168C111.065 87.168 103.79 87.1212 103.79 87.064C103.79 87.0068 111.065 86.96 120.042 86.96C129.016 86.96 136.292 87.0068 136.292 87.064Z" fill="#263238"/>
<path d="M122.98 89.6216C122.98 89.6792 118.684 89.7256 113.385 89.7256C108.085 89.7256 103.79 89.6788 103.79 89.6216C103.79 89.564 108.085 89.5176 113.385 89.5176C118.684 89.5176 122.98 89.5644 122.98 89.6216Z" fill="#263238"/>
<path d="M98.5207 99.7188H86.2695V111.97H98.5207V99.7188Z" fill="#1877F2"/>
<path d="M122.088 101.038C122.088 101.095 117.992 101.142 112.94 101.142C107.886 101.142 103.79 101.095 103.79 101.038C103.79 100.98 107.886 100.934 112.94 100.934C117.992 100.934 122.088 100.98 122.088 101.038Z" fill="#1877F2"/>
<path d="M136.679 104.793C136.679 104.851 129.316 104.897 120.235 104.897C111.151 104.897 103.79 104.851 103.79 104.793C103.79 104.736 111.152 104.689 120.235 104.689C129.316 104.689 136.679 104.736 136.679 104.793Z" fill="#263238"/>
<path d="M136.292 107.475C136.292 107.533 129.016 107.579 120.042 107.579C111.065 107.579 103.79 107.532 103.79 107.475C103.79 107.417 111.065 107.371 120.042 107.371C129.016 107.371 136.292 107.417 136.292 107.475Z" fill="#263238"/>
<path d="M122.98 110.034C122.98 110.091 118.684 110.138 113.385 110.138C108.085 110.138 103.79 110.091 103.79 110.034C103.79 109.976 108.085 109.93 113.385 109.93C118.684 109.93 122.98 109.976 122.98 110.034Z" fill="#263238"/>
<path d="M98.5207 120.13H86.2695V132.381H98.5207V120.13Z" fill="#1877F2"/>
<path d="M122.088 121.449C122.088 121.506 117.992 121.553 112.94 121.553C107.886 121.553 103.79 121.506 103.79 121.449C103.79 121.391 107.886 121.345 112.94 121.345C117.992 121.345 122.088 121.392 122.088 121.449Z" fill="#1877F2"/>
<path d="M136.679 125.205C136.679 125.262 129.316 125.309 120.235 125.309C111.151 125.309 103.79 125.262 103.79 125.205C103.79 125.147 111.152 125.101 120.235 125.101C129.316 125.101 136.679 125.147 136.679 125.205Z" fill="#263238"/>
<path d="M136.292 127.886C136.292 127.944 129.016 127.99 120.042 127.99C111.065 127.99 103.79 127.943 103.79 127.886C103.79 127.829 111.065 127.782 120.042 127.782C129.016 127.782 136.292 127.829 136.292 127.886Z" fill="#263238"/>
<path d="M122.98 130.445C122.98 130.502 118.684 130.549 113.385 130.549C108.085 130.549 103.79 130.502 103.79 130.445C103.79 130.387 108.085 130.341 113.385 130.341C118.684 130.341 122.98 130.387 122.98 130.445Z" fill="#263238"/>
<path d="M98.5207 140.542H86.2695V152.793H98.5207V140.542Z" fill="#1877F2"/>
<path d="M122.088 141.86C122.088 141.917 117.992 141.964 112.94 141.964C107.886 141.964 103.79 141.917 103.79 141.86C103.79 141.802 107.886 141.756 112.94 141.756C117.992 141.756 122.088 141.803 122.088 141.86Z" fill="#455A64"/>
<path d="M136.679 145.616C136.679 145.673 129.316 145.72 120.235 145.72C111.151 145.72 103.79 145.673 103.79 145.616C103.79 145.559 111.152 145.512 120.235 145.512C129.316 145.512 136.679 145.558 136.679 145.616Z" fill="#263238"/>
<path d="M136.292 148.297C136.292 148.355 129.016 148.401 120.042 148.401C111.065 148.401 103.79 148.355 103.79 148.297C103.79 148.24 111.065 148.193 120.042 148.193C129.016 148.193 136.292 148.24 136.292 148.297Z" fill="#263238"/>
<path d="M122.98 150.856C122.98 150.914 118.684 150.96 113.385 150.96C108.085 150.96 103.79 150.913 103.79 150.856C103.79 150.799 108.085 150.752 113.385 150.752C118.684 150.752 122.98 150.798 122.98 150.856Z" fill="#263238"/>
<path d="M98.5207 160.953H86.2695V173.204H98.5207V160.953Z" fill="#E0E0E0"/>
<path d="M122.088 162.271C122.088 162.329 117.992 162.375 112.94 162.375C107.886 162.375 103.79 162.328 103.79 162.271C103.79 162.214 107.886 162.167 112.94 162.167C117.992 162.167 122.088 162.214 122.088 162.271Z" fill="#E0E0E0"/>
<path d="M136.679 166.027C136.679 166.084 129.316 166.131 120.235 166.131C111.151 166.131 103.79 166.084 103.79 166.027C103.79 165.969 111.152 165.923 120.235 165.923C129.316 165.923 136.679 165.969 136.679 166.027Z" fill="#EBEBEB"/>
<path d="M136.292 168.708C136.292 168.766 129.016 168.813 120.042 168.813C111.065 168.813 103.79 168.766 103.79 168.708C103.79 168.651 111.065 168.604 120.042 168.604C129.016 168.604 136.292 168.651 136.292 168.708Z" fill="#EBEBEB"/>
<path d="M122.98 171.267C122.98 171.325 118.684 171.371 113.385 171.371C108.085 171.371 103.79 171.324 103.79 171.267C103.79 171.209 108.085 171.163 113.385 171.163C118.684 171.163 122.98 171.209 122.98 171.267Z" fill="#EBEBEB"/>
<g opacity="0.3">
<path d="M98.5207 140.542H86.2695V152.793H98.5207V140.542Z" fill="black"/>
</g>
<g opacity="0.3">
<path d="M98.5207 99.7188H86.2695V111.97H98.5207V99.7188Z" fill="black"/>
</g>
</svg>
