<svg width="106" height="35" viewBox="0 0 106 35" fill="none" xmlns="http://www.w3.org/2000/svg">
<g clip-path="url(#clip0_77_227)">
<path d="M13.0723 12.3592V15.9748H21.5478C21.2605 17.9995 20.6859 19.4457 19.6803 20.4581C18.3875 21.7597 16.52 23.0613 13.216 23.0613C8.04451 23.0613 4.02226 18.8673 4.02226 13.6608C4.02226 8.45432 8.04451 4.26022 13.216 4.26022C15.9454 4.26022 18.1002 5.41722 19.5367 6.86346L21.9788 4.40485C19.824 2.09086 17.0946 0.5 13.0723 0.5C5.88973 0.5 0 6.28496 0 13.5162C0 20.7474 6.03338 26.5323 13.0723 26.5323C16.9509 26.5323 19.824 25.2307 22.1224 22.9167C24.4208 20.6027 25.1391 17.2764 25.1391 14.5285C25.1391 13.6608 25.1391 12.9377 24.9954 12.3592H13.0723Z" fill="#D9D9D9"/>
<path d="M35.7696 9.4668C31.1727 9.4668 27.4377 12.9378 27.4377 17.855C27.4377 22.6276 31.1727 26.2432 35.7696 26.2432C40.3664 26.2432 44.1014 22.6276 44.1014 17.855C44.1014 12.9378 40.3664 9.4668 35.7696 9.4668ZM35.7696 22.9168C33.1838 22.9168 31.029 20.8921 31.029 17.855C31.029 14.8179 33.1838 12.7931 35.7696 12.7931C38.3553 12.7931 40.5101 14.8179 40.5101 17.855C40.5101 20.8921 38.3553 22.9168 35.7696 22.9168Z" fill="#D9D9D9"/>
<path d="M76.8538 11.3469C75.8483 10.3345 74.2681 9.4668 72.257 9.4668C68.0911 9.4668 64.4998 13.0824 64.4998 17.855C64.4998 22.6276 68.0911 26.2432 72.257 26.2432C74.2681 26.2432 75.8483 25.3754 76.7102 24.3631H76.8538V25.5201C76.8538 28.7018 75.13 30.4373 72.4006 30.4373C70.1022 30.4373 68.8093 28.8464 68.2347 27.4002L65.0744 28.7018C65.9363 30.8712 68.3784 33.619 72.5443 33.619C76.8538 33.619 80.4451 31.0158 80.4451 24.7969V9.90067H76.9975L76.8538 11.3469ZM72.6879 22.9168C70.1022 22.9168 68.2347 20.7475 68.2347 17.855C68.2347 14.8179 70.1022 12.7931 72.6879 12.7931C75.13 12.7931 77.1411 14.9625 77.1411 17.855C77.1411 20.7475 75.13 22.9168 72.6879 22.9168Z" fill="#D9D9D9"/>
<path d="M54.4441 9.4668C49.8473 9.4668 46.1123 12.9378 46.1123 17.855C46.1123 22.6276 49.8473 26.2432 54.4441 26.2432C59.041 26.2432 62.7759 22.6276 62.7759 17.855C62.7759 12.9378 59.041 9.4668 54.4441 9.4668ZM54.4441 22.9168C51.8584 22.9168 49.7036 20.8921 49.7036 17.855C49.7036 14.8179 51.8584 12.7931 54.4441 12.7931C57.0299 12.7931 59.1846 14.8179 59.1846 17.855C59.1846 20.8921 57.0299 22.9168 54.4441 22.9168Z" fill="#D9D9D9"/>
<path d="M83.1748 0.789062H86.7661V26.2429H83.1748V0.789062Z" fill="#D9D9D9"/>
<path d="M97.9705 22.9169C96.103 22.9169 94.8101 22.0492 93.9482 20.3137L105.153 15.6857L104.722 14.6734C104.004 12.7932 101.849 9.32227 97.5395 9.32227C93.23 9.32227 89.6387 12.7932 89.6387 17.7105C89.6387 22.4831 93.23 26.0987 97.9705 26.0987C101.849 26.0987 104.004 23.7847 104.866 22.3384L101.993 20.4583C101.131 22.0492 99.838 22.9169 97.9705 22.9169ZM97.6832 12.6486C99.1197 12.6486 100.413 13.3717 100.844 14.5287L93.23 17.5658C93.23 14.0949 95.8157 12.6486 97.6832 12.6486Z" fill="#D9D9D9"/>
</g>
<defs>
<clipPath id="clip0_77_227">
<rect width="106" height="34" fill="white" transform="translate(0 0.5)"/>
</clipPath>
</defs>
</svg>
