<svg width="111" height="39" viewBox="0 0 111 39" fill="none" xmlns="http://www.w3.org/2000/svg">
<path d="M6.5387 23.2V17.168H14.2867C15.916 17.168 17.164 16.752 18.0307 15.92C18.932 15.088 19.3827 13.9614 19.3827 12.54C19.3827 11.2227 18.9494 10.1307 18.0827 9.26403C17.216 8.39736 15.968 7.96403 14.3387 7.96403H6.5387V1.62003H15.2747C17.7014 1.62003 19.8334 2.08803 21.6707 3.02403C23.508 3.92536 24.9467 5.1907 25.9867 6.82003C27.0267 8.44936 27.5467 10.3214 27.5467 12.436C27.5467 14.5854 27.0267 16.4747 25.9867 18.104C24.9467 19.6987 23.4907 20.9467 21.6187 21.848C19.7467 22.7494 17.5454 23.2 15.0147 23.2H6.5387ZM0.298696 38.332V1.62003H8.4627V38.332H0.298696ZM20.2667 38.332L8.8267 22.524L16.3147 20.496L29.9387 38.332H20.2667ZM42.6775 38.852C40.3548 38.852 38.2748 38.28 36.4375 37.136C34.6348 35.992 33.1961 34.432 32.1215 32.456C31.0815 30.48 30.5615 28.2267 30.5615 25.696C30.5615 23.1654 31.0815 20.912 32.1215 18.936C33.1961 16.96 34.6348 15.4 36.4375 14.256C38.2748 13.112 40.3548 12.54 42.6775 12.54C44.3761 12.54 45.9015 12.8694 47.2535 13.528C48.6401 14.1867 49.7668 15.1054 50.6335 16.284C51.5001 17.428 51.9855 18.7454 52.0895 20.236V31.156C51.9855 32.6467 51.5001 33.9814 50.6335 35.16C49.8015 36.304 48.6921 37.2054 47.3055 37.864C45.9188 38.5227 44.3761 38.852 42.6775 38.852ZM44.2895 31.676C45.9881 31.676 47.3575 31.1214 48.3975 30.012C49.4375 28.868 49.9575 27.4294 49.9575 25.696C49.9575 24.5174 49.7148 23.4774 49.2295 22.576C48.7788 21.6747 48.1201 20.9814 47.2535 20.496C46.4215 19.976 45.4508 19.716 44.3415 19.716C43.2321 19.716 42.2441 19.976 41.3775 20.496C40.5455 20.9814 39.8695 21.6747 39.3495 22.576C38.8641 23.4774 38.6215 24.5174 38.6215 25.696C38.6215 26.84 38.8641 27.8627 39.3495 28.764C39.8348 29.6654 40.5108 30.376 41.3775 30.896C42.2441 31.416 43.2148 31.676 44.2895 31.676ZM49.6455 38.332V31.52L50.8415 25.384L49.6455 19.248V13.06H57.4455V38.332H49.6455ZM63.0473 38.332V13.06H71.0033V38.332H63.0473ZM67.0513 9.57603C65.8033 9.57603 64.7633 9.16003 63.9313 8.32803C63.1339 7.46136 62.7353 6.42136 62.7353 5.20803C62.7353 3.96003 63.1339 2.92003 63.9313 2.08803C64.7633 1.25603 65.8033 0.84003 67.0513 0.84003C68.2993 0.84003 69.3219 1.25603 70.1193 2.08803C70.9166 2.92003 71.3153 3.96003 71.3153 5.20803C71.3153 6.42136 70.9166 7.46136 70.1193 8.32803C69.3219 9.16003 68.2993 9.57603 67.0513 9.57603ZM76.6059 38.332V0.580031H84.5619V38.332H76.6059ZM99.3684 38.956C97.8778 38.956 96.4044 38.7654 94.9484 38.384C93.5271 38.0027 92.1924 37.4654 90.9444 36.772C89.7311 36.044 88.6911 35.212 87.8244 34.276L92.3484 29.7C93.1804 30.6014 94.1684 31.312 95.3124 31.832C96.4564 32.3174 97.7044 32.56 99.0564 32.56C99.9924 32.56 100.703 32.4214 101.188 32.144C101.708 31.8667 101.968 31.4854 101.968 31C101.968 30.376 101.656 29.908 101.032 29.596C100.443 29.2494 99.6804 28.9547 98.7444 28.712C97.8084 28.4347 96.8204 28.14 95.7804 27.828C94.7404 27.516 93.7524 27.0827 92.8164 26.528C91.8804 25.9734 91.1178 25.2107 90.5284 24.24C89.9391 23.2347 89.6444 21.9694 89.6444 20.444C89.6444 18.8147 90.0604 17.4107 90.8924 16.232C91.7244 15.0187 92.9031 14.0654 94.4284 13.372C95.9538 12.6787 97.7391 12.332 99.7844 12.332C101.934 12.332 103.91 12.7134 105.712 13.476C107.55 14.204 109.04 15.296 110.184 16.752L105.66 21.328C104.863 20.392 103.962 19.7334 102.956 19.352C101.986 18.9707 101.032 18.78 100.096 18.78C99.1951 18.78 98.5191 18.9187 98.0684 19.196C97.6178 19.4387 97.3924 19.8027 97.3924 20.288C97.3924 20.808 97.6871 21.224 98.2764 21.536C98.8658 21.848 99.6284 22.1254 100.564 22.368C101.5 22.6107 102.488 22.9054 103.528 23.252C104.568 23.5987 105.556 24.0667 106.492 24.656C107.428 25.2454 108.191 26.0427 108.78 27.048C109.37 28.0187 109.664 29.3014 109.664 30.896C109.664 33.3574 108.728 35.316 106.856 36.772C105.019 38.228 102.523 38.956 99.3684 38.956Z" fill="#C2C7CC"/>
</svg>
