<svg width="165" height="49" viewBox="0 0 165 49" fill="none" xmlns="http://www.w3.org/2000/svg">
<path d="M6.5387 24.968V18.624H14.4427C15.448 18.624 16.3667 18.416 17.1987 18C18.0307 17.584 18.6894 16.9774 19.1747 16.18C19.66 15.3827 19.9027 14.412 19.9027 13.268C19.9027 12.1587 19.66 11.2054 19.1747 10.408C18.6894 9.6107 18.0307 9.00403 17.1987 8.58803C16.3667 8.17203 15.448 7.96403 14.4427 7.96403H6.5387V1.62003H15.6387C17.9614 1.62003 20.0587 2.08803 21.9307 3.02403C23.8027 3.96003 25.276 5.31203 26.3507 7.08003C27.46 8.81336 28.0147 10.876 28.0147 13.268C28.0147 15.66 27.46 17.74 26.3507 19.508C25.276 21.2414 23.8027 22.5934 21.9307 23.564C20.0587 24.5 17.9614 24.968 15.6387 24.968H6.5387ZM0.298696 38.332V1.62003H8.4627V38.332H0.298696ZM40.023 38.436L29.623 13.06H38.203L44.807 33.184H41.635L48.395 13.06H56.975L46.159 38.436H40.023ZM33.523 48.992L41.115 32.612L46.159 38.436L41.687 48.992H33.523ZM63.1821 38.332V2.60803H71.1381V38.332H63.1821ZM57.4621 19.82V13.06H76.8581V19.82H57.4621ZM97.0557 38.332V23.928C97.0557 22.6107 96.6397 21.5534 95.8077 20.756C95.0103 19.924 93.9877 19.508 92.7397 19.508C91.873 19.508 91.1103 19.6987 90.4517 20.08C89.793 20.4267 89.273 20.9467 88.8917 21.64C88.5103 22.2987 88.3197 23.0614 88.3197 23.928L85.2517 22.42C85.2517 20.444 85.6677 18.7107 86.4997 17.22C87.3317 15.7294 88.493 14.5854 89.9837 13.788C91.4743 12.956 93.1903 12.54 95.1317 12.54C97.1077 12.54 98.841 12.956 100.332 13.788C101.822 14.5854 102.966 15.712 103.764 17.168C104.596 18.5894 105.012 20.2534 105.012 22.16V38.332H97.0557ZM80.3637 38.332V0.580031H88.3197V38.332H80.3637ZM122.289 38.904C119.689 38.904 117.332 38.332 115.217 37.188C113.137 36.0094 111.491 34.4147 110.277 32.404C109.064 30.3934 108.457 28.14 108.457 25.644C108.457 23.148 109.064 20.912 110.277 18.936C111.491 16.96 113.137 15.4 115.217 14.256C117.297 13.0774 119.655 12.488 122.289 12.488C124.924 12.488 127.281 13.06 129.361 14.204C131.441 15.348 133.088 16.9254 134.301 18.936C135.515 20.912 136.121 23.148 136.121 25.644C136.121 28.14 135.515 30.3934 134.301 32.404C133.088 34.4147 131.441 36.0094 129.361 37.188C127.281 38.332 124.924 38.904 122.289 38.904ZM122.289 31.676C123.433 31.676 124.439 31.4334 125.305 30.948C126.172 30.428 126.831 29.7174 127.281 28.816C127.767 27.88 128.009 26.8227 128.009 25.644C128.009 24.4654 127.767 23.4427 127.281 22.576C126.796 21.6747 126.12 20.9814 125.253 20.496C124.421 19.976 123.433 19.716 122.289 19.716C121.18 19.716 120.192 19.976 119.325 20.496C118.459 20.9814 117.783 21.6747 117.297 22.576C116.812 23.4774 116.569 24.5174 116.569 25.696C116.569 26.84 116.812 27.88 117.297 28.816C117.783 29.7174 118.459 30.428 119.325 30.948C120.192 31.4334 121.18 31.676 122.289 31.676ZM156.774 38.332V23.928C156.774 22.6107 156.358 21.5534 155.526 20.756C154.729 19.924 153.706 19.508 152.458 19.508C151.592 19.508 150.829 19.6987 150.17 20.08C149.512 20.4267 148.992 20.9467 148.61 21.64C148.229 22.2987 148.038 23.0614 148.038 23.928L144.97 22.42C144.97 20.444 145.404 18.7107 146.27 17.22C147.137 15.7294 148.333 14.5854 149.858 13.788C151.418 12.956 153.169 12.54 155.11 12.54C156.982 12.54 158.629 12.9907 160.05 13.892C161.506 14.7587 162.65 15.92 163.482 17.376C164.314 18.832 164.73 20.4267 164.73 22.16V38.332H156.774ZM140.082 38.332V13.06H148.038V38.332H140.082Z" fill="#C2C7CC"/>
</svg>
