<svg width="114" height="38" viewBox="0 0 114 38" fill="none" xmlns="http://www.w3.org/2000/svg">
<path d="M10.9427 37.904C8.62003 37.904 6.59203 37.488 4.8587 36.656C3.16003 35.7894 1.70403 34.5934 0.490695 33.068L5.9507 27.816C6.5747 28.6827 7.3027 29.3414 8.1347 29.792C9.00136 30.2427 9.97203 30.468 11.0467 30.468C12.0867 30.468 12.988 30.26 13.7507 29.844C14.5134 29.3934 15.12 28.7694 15.5707 27.972C16.0214 27.14 16.2467 26.1174 16.2467 24.904V0.62003H24.4627V24.436C24.4627 27.1747 23.908 29.5494 22.7987 31.56C21.6894 33.5707 20.1294 35.1307 18.1187 36.24C16.108 37.3494 13.716 37.904 10.9427 37.904ZM40.8025 37.852C38.4798 37.852 36.3998 37.28 34.5625 36.136C32.7598 34.992 31.3211 33.432 30.2465 31.456C29.2065 29.48 28.6865 27.2267 28.6865 24.696C28.6865 22.1654 29.2065 19.912 30.2465 17.936C31.3211 15.96 32.7598 14.4 34.5625 13.256C36.3998 12.112 38.4798 11.54 40.8025 11.54C42.5011 11.54 44.0265 11.8694 45.3785 12.528C46.7651 13.1867 47.8918 14.1054 48.7585 15.284C49.6251 16.428 50.1105 17.7454 50.2145 19.236V30.156C50.1105 31.6467 49.6251 32.9814 48.7585 34.16C47.9265 35.304 46.8171 36.2054 45.4305 36.864C44.0438 37.5227 42.5011 37.852 40.8025 37.852ZM42.4145 30.676C44.1131 30.676 45.4825 30.1214 46.5225 29.012C47.5625 27.868 48.0825 26.4294 48.0825 24.696C48.0825 23.5174 47.8398 22.4774 47.3545 21.576C46.9038 20.6747 46.2451 19.9814 45.3785 19.496C44.5465 18.976 43.5758 18.716 42.4665 18.716C41.3571 18.716 40.3691 18.976 39.5025 19.496C38.6705 19.9814 37.9945 20.6747 37.4745 21.576C36.9891 22.4774 36.7465 23.5174 36.7465 24.696C36.7465 25.84 36.9891 26.8627 37.4745 27.764C37.9598 28.6654 38.6358 29.376 39.5025 29.896C40.3691 30.416 41.3398 30.676 42.4145 30.676ZM47.7705 37.332V30.52L48.9665 24.384L47.7705 18.248V12.06H55.5705V37.332H47.7705ZM69.1283 37.332L58.4163 12.06H66.9963L74.2763 33.12H70.5323L77.8123 12.06H86.2363L75.5243 37.332H69.1283ZM98.947 37.852C96.6243 37.852 94.5443 37.28 92.707 36.136C90.9043 34.992 89.4657 33.432 88.391 31.456C87.351 29.48 86.831 27.2267 86.831 24.696C86.831 22.1654 87.351 19.912 88.391 17.936C89.4657 15.96 90.9043 14.4 92.707 13.256C94.5443 12.112 96.6243 11.54 98.947 11.54C100.646 11.54 102.171 11.8694 103.523 12.528C104.91 13.1867 106.036 14.1054 106.903 15.284C107.77 16.428 108.255 17.7454 108.359 19.236V30.156C108.255 31.6467 107.77 32.9814 106.903 34.16C106.071 35.304 104.962 36.2054 103.575 36.864C102.188 37.5227 100.646 37.852 98.947 37.852ZM100.559 30.676C102.258 30.676 103.627 30.1214 104.667 29.012C105.707 27.868 106.227 26.4294 106.227 24.696C106.227 23.5174 105.984 22.4774 105.499 21.576C105.048 20.6747 104.39 19.9814 103.523 19.496C102.691 18.976 101.72 18.716 100.611 18.716C99.5017 18.716 98.5137 18.976 97.647 19.496C96.815 19.9814 96.139 20.6747 95.619 21.576C95.1337 22.4774 94.891 23.5174 94.891 24.696C94.891 25.84 95.1337 26.8627 95.619 27.764C96.1043 28.6654 96.7803 29.376 97.647 29.896C98.5137 30.416 99.4843 30.676 100.559 30.676ZM105.915 37.332V30.52L107.111 24.384L105.915 18.248V12.06H113.715V37.332H105.915Z" fill="#C2C7CC"/>
</svg>
