<svg width="115" height="38" viewBox="0 0 115 38" fill="none" xmlns="http://www.w3.org/2000/svg">
<path d="M5.5627 37.904C4.2107 37.904 3.08403 37.436 2.1827 36.5C1.28136 35.564 0.830696 34.4374 0.830696 33.12C0.830696 31.7334 1.28136 30.5894 2.1827 29.688C3.08403 28.752 4.2107 28.284 5.5627 28.284C6.94936 28.284 8.07603 28.752 8.9427 29.688C9.84403 30.5894 10.2947 31.7334 10.2947 33.12C10.2947 34.4374 9.84403 35.564 8.9427 36.5C8.07603 37.436 6.94936 37.904 5.5627 37.904ZM16.8885 37.332V0.62003H22.6085L25.0525 7.95203V37.332H16.8885ZM42.2125 37.332L20.5805 9.61603L22.6085 0.62003L44.2405 28.336L42.2125 37.332ZM42.2125 37.332L40.0285 30V0.62003H48.1925V37.332H42.2125ZM55.2792 37.332V0.62003H63.4432V37.332H55.2792ZM61.5192 37.332V30.26H81.6432V37.332H61.5192ZM61.5192 21.992V15.18H79.8232V21.992H61.5192ZM61.5192 7.64003V0.62003H81.3832V7.64003H61.5192ZM95.1502 37.332V1.14003H103.314V37.332H95.1502ZM83.6582 7.74403V0.62003H114.806V7.74403H83.6582Z" fill="#C2C7CC"/>
</svg>
