<svg width="135" height="38" viewBox="0 0 135 38" fill="none" xmlns="http://www.w3.org/2000/svg">
<path d="M6.5387 22.2V16.168H14.2867C15.916 16.168 17.164 15.752 18.0307 14.92C18.932 14.088 19.3827 12.9614 19.3827 11.54C19.3827 10.2227 18.9494 9.1307 18.0827 8.26403C17.216 7.39736 15.968 6.96403 14.3387 6.96403H6.5387V0.62003H15.2747C17.7014 0.62003 19.8334 1.08803 21.6707 2.02403C23.508 2.92536 24.9467 4.1907 25.9867 5.82003C27.0267 7.44936 27.5467 9.32136 27.5467 11.436C27.5467 13.5854 27.0267 15.4747 25.9867 17.104C24.9467 18.6987 23.4907 19.9467 21.6187 20.848C19.7467 21.7494 17.5454 22.2 15.0147 22.2H6.5387ZM0.298696 37.332V0.62003H8.4627V37.332H0.298696ZM20.2667 37.332L8.8267 21.524L16.3147 19.496L29.9387 37.332H20.2667ZM44.6015 37.904C41.8628 37.904 39.4188 37.3494 37.2695 36.24C35.1548 35.096 33.4908 33.5187 32.2775 31.508C31.0641 29.4974 30.4575 27.2267 30.4575 24.696C30.4575 22.1654 31.0468 19.912 32.2255 17.936C33.4388 15.9254 35.0681 14.348 37.1135 13.204C39.1588 12.06 41.4641 11.488 44.0295 11.488C46.5255 11.488 48.7268 12.0254 50.6335 13.1C52.5401 14.1747 54.0308 15.6654 55.1055 17.572C56.2148 19.4787 56.7695 21.6627 56.7695 24.124C56.7695 24.5747 56.7348 25.06 56.6655 25.58C56.6308 26.0654 56.5441 26.6374 56.4055 27.296L34.6175 27.348V21.888L53.0255 21.836L49.5935 24.124C49.5588 22.668 49.3335 21.472 48.9175 20.536C48.5015 19.5654 47.8775 18.8374 47.0455 18.352C46.2481 17.832 45.2601 17.572 44.0815 17.572C42.8335 17.572 41.7415 17.8667 40.8055 18.456C39.9041 19.0107 39.1935 19.808 38.6735 20.848C38.1881 21.888 37.9455 23.1534 37.9455 24.644C37.9455 26.1347 38.2055 27.4174 38.7255 28.492C39.2801 29.532 40.0428 30.3467 41.0135 30.936C42.0188 31.4907 43.1975 31.768 44.5495 31.768C45.7975 31.768 46.9241 31.56 47.9295 31.144C48.9348 30.6934 49.8188 30.0347 50.5815 29.168L54.9495 33.536C53.7015 34.992 52.1935 36.084 50.4255 36.812C48.6575 37.54 46.7161 37.904 44.6015 37.904ZM71.1658 37.852C68.8431 37.852 66.7631 37.28 64.9258 36.136C63.1231 34.992 61.6844 33.432 60.6098 31.456C59.5698 29.48 59.0498 27.2267 59.0498 24.696C59.0498 22.1654 59.5698 19.912 60.6098 17.936C61.6844 15.96 63.1231 14.4 64.9258 13.256C66.7631 12.112 68.8431 11.54 71.1658 11.54C72.8644 11.54 74.3898 11.8694 75.7418 12.528C77.1284 13.1867 78.2551 14.1054 79.1218 15.284C79.9884 16.428 80.4738 17.7454 80.5778 19.236V30.156C80.4738 31.6467 79.9884 32.9814 79.1218 34.16C78.2898 35.304 77.1804 36.2054 75.7938 36.864C74.4071 37.5227 72.8644 37.852 71.1658 37.852ZM72.7778 30.676C74.4764 30.676 75.8458 30.1214 76.8858 29.012C77.9258 27.868 78.4458 26.4294 78.4458 24.696C78.4458 23.5174 78.2031 22.4774 77.7178 21.576C77.2671 20.6747 76.6084 19.9814 75.7418 19.496C74.9098 18.976 73.9391 18.716 72.8298 18.716C71.7204 18.716 70.7324 18.976 69.8658 19.496C69.0338 19.9814 68.3578 20.6747 67.8378 21.576C67.3524 22.4774 67.1098 23.5174 67.1098 24.696C67.1098 25.84 67.3524 26.8627 67.8378 27.764C68.3231 28.6654 68.9991 29.376 69.8658 29.896C70.7324 30.416 71.7031 30.676 72.7778 30.676ZM78.1338 37.332V30.52L79.3298 24.384L78.1338 18.248V12.06H85.9338V37.332H78.1338ZM103.756 37.904C101.156 37.904 98.7982 37.332 96.6835 36.188C94.5689 35.044 92.9049 33.4667 91.6915 31.456C90.4782 29.4454 89.8715 27.192 89.8715 24.696C89.8715 22.1654 90.4782 19.912 91.6915 17.936C92.9395 15.9254 94.6209 14.348 96.7355 13.204C98.8502 12.06 101.225 11.488 103.86 11.488C105.836 11.488 107.638 11.8347 109.268 12.528C110.932 13.1867 112.405 14.192 113.688 15.544L108.592 20.64C108.002 19.9814 107.309 19.496 106.512 19.184C105.749 18.872 104.865 18.716 103.86 18.716C102.716 18.716 101.693 18.976 100.792 19.496C99.9249 19.9814 99.2315 20.6747 98.7115 21.576C98.2262 22.4427 97.9835 23.4654 97.9835 24.644C97.9835 25.8227 98.2262 26.8627 98.7115 27.764C99.2315 28.6654 99.9422 29.376 100.844 29.896C101.745 30.416 102.75 30.676 103.86 30.676C104.9 30.676 105.818 30.5027 106.616 30.156C107.448 29.7747 108.158 29.2547 108.748 28.596L113.792 33.692C112.474 35.0787 110.984 36.136 109.32 36.864C107.656 37.5574 105.801 37.904 103.756 37.904ZM120.514 37.332V1.60803H128.47V37.332H120.514ZM114.794 18.82V12.06H134.19V18.82H114.794Z" fill="#C2C7CC"/>
</svg>
