<svg width="68" height="38" viewBox="0 0 68 38" fill="none" xmlns="http://www.w3.org/2000/svg">
<path d="M19.7187 37.904C16.98 37.904 14.432 37.436 12.0747 36.5C9.75203 35.5294 7.7067 34.1774 5.9387 32.444C4.20536 30.7107 2.85336 28.7 1.8827 26.412C0.912029 24.0894 0.426695 21.5934 0.426695 18.924C0.426695 16.2547 0.912029 13.776 1.8827 11.488C2.85336 9.16536 4.20536 7.1547 5.9387 5.45603C7.67203 3.75736 9.70003 2.44003 12.0227 1.50403C14.38 0.533364 16.928 0.0480309 19.6667 0.0480309C22.5787 0.0480309 25.1614 0.51603 27.4147 1.45203C29.7027 2.38803 31.696 3.6707 33.3947 5.30003L27.9347 10.812C26.964 9.77203 25.7854 8.95736 24.3987 8.36803C23.0467 7.7787 21.4694 7.48403 19.6667 7.48403C18.072 7.48403 16.5987 7.76136 15.2467 8.31603C13.9294 8.83603 12.7854 9.5987 11.8147 10.604C10.8787 11.6094 10.1334 12.8227 9.5787 14.244C9.0587 15.6654 8.7987 17.2254 8.7987 18.924C8.7987 20.6574 9.0587 22.2347 9.5787 23.656C10.1334 25.0774 10.8787 26.2907 11.8147 27.296C12.7854 28.3014 13.9294 29.0814 15.2467 29.636C16.5987 30.1907 18.072 30.468 19.6667 30.468C21.5387 30.468 23.168 30.1734 24.5547 29.584C25.9414 28.9947 27.1374 28.18 28.1427 27.14L33.6547 32.652C31.8867 34.2814 29.8587 35.564 27.5707 36.5C25.3174 37.436 22.7 37.904 19.7187 37.904ZM51.2543 37.332L57.3383 0.62003H63.8383L57.7023 37.332H51.2543ZM36.4343 26.828V21.16H65.5023V26.828H36.4343ZM39.5543 37.332L45.6383 0.62003H52.0863L46.0023 37.332H39.5543ZM38.2023 15.96V10.344H67.2183V15.96H38.2023Z" fill="#C2C7CC"/>
</svg>
