<svg width="180" height="50" viewBox="0 0 180 50" fill="none" xmlns="http://www.w3.org/2000/svg">
<path d="M0.298696 38.332V1.62003H6.0187L8.4627 8.95203V38.332H0.298696ZM25.6227 38.332L3.9907 10.616L6.0187 1.62003L27.6507 29.336L25.6227 38.332ZM25.6227 38.332L23.4387 31V1.62003H31.6027V38.332H25.6227ZM50.1293 38.904C47.5293 38.904 45.172 38.332 43.0573 37.188C40.9773 36.0094 39.3307 34.4147 38.1173 32.404C36.904 30.3934 36.2973 28.14 36.2973 25.644C36.2973 23.148 36.904 20.912 38.1173 18.936C39.3307 16.96 40.9773 15.4 43.0573 14.256C45.1373 13.0774 47.4947 12.488 50.1293 12.488C52.764 12.488 55.1213 13.06 57.2013 14.204C59.2813 15.348 60.928 16.9254 62.1413 18.936C63.3547 20.912 63.9613 23.148 63.9613 25.644C63.9613 28.14 63.3547 30.3934 62.1413 32.404C60.928 34.4147 59.2813 36.0094 57.2013 37.188C55.1213 38.332 52.764 38.904 50.1293 38.904ZM50.1293 31.676C51.2733 31.676 52.2787 31.4334 53.1453 30.948C54.012 30.428 54.6707 29.7174 55.1213 28.816C55.6067 27.88 55.8493 26.8227 55.8493 25.644C55.8493 24.4654 55.6067 23.4427 55.1213 22.576C54.636 21.6747 53.96 20.9814 53.0933 20.496C52.2613 19.976 51.2733 19.716 50.1293 19.716C49.02 19.716 48.032 19.976 47.1653 20.496C46.2987 20.9814 45.6227 21.6747 45.1373 22.576C44.652 23.4774 44.4093 24.5174 44.4093 25.696C44.4093 26.84 44.652 27.88 45.1373 28.816C45.6227 29.7174 46.2987 30.428 47.1653 30.948C48.032 31.4334 49.02 31.676 50.1293 31.676ZM78.6863 38.852C76.2943 38.852 74.1623 38.28 72.2903 37.136C70.4529 35.992 68.9969 34.432 67.9223 32.456C66.8823 30.48 66.3623 28.2267 66.3623 25.696C66.3623 23.1654 66.8823 20.912 67.9223 18.936C68.9969 16.96 70.4529 15.4 72.2903 14.256C74.1623 13.112 76.2943 12.54 78.6863 12.54C80.4196 12.54 81.9796 12.8694 83.3663 13.528C84.7876 14.1867 85.9489 15.1054 86.8503 16.284C87.7863 17.428 88.3063 18.7454 88.4103 20.236V30.896C88.3063 32.3867 87.8036 33.7387 86.9023 34.952C86.0009 36.1307 84.8396 37.084 83.4183 37.812C81.9969 38.5054 80.4196 38.852 78.6863 38.852ZM80.0903 31.676C81.2343 31.676 82.2223 31.4334 83.0543 30.948C83.8863 30.428 84.5449 29.7174 85.0303 28.816C85.5156 27.9147 85.7583 26.8747 85.7583 25.696C85.7583 24.5174 85.5156 23.4947 85.0303 22.628C84.5796 21.7267 83.9209 21.016 83.0543 20.496C82.2223 19.976 81.2516 19.716 80.1423 19.716C79.0329 19.716 78.0449 19.976 77.1783 20.496C76.3463 21.016 75.6703 21.7267 75.1503 22.628C74.6649 23.5294 74.4223 24.552 74.4223 25.696C74.4223 26.84 74.6649 27.8627 75.1503 28.764C75.6356 29.6654 76.3116 30.376 77.1783 30.896C78.0449 31.416 79.0156 31.676 80.0903 31.676ZM93.2463 38.332H85.4463V31.52L86.6423 25.384L85.2903 19.248V0.580031H93.2463V38.332ZM111.328 38.904C108.589 38.904 106.145 38.3494 103.996 37.24C101.881 36.096 100.217 34.5187 99.004 32.508C97.7907 30.4974 97.184 28.2267 97.184 25.696C97.184 23.1654 97.7734 20.912 98.952 18.936C100.165 16.9254 101.795 15.348 103.84 14.204C105.885 13.06 108.191 12.488 110.756 12.488C113.252 12.488 115.453 13.0254 117.36 14.1C119.267 15.1747 120.757 16.6654 121.832 18.572C122.941 20.4787 123.496 22.6627 123.496 25.124C123.496 25.5747 123.461 26.06 123.392 26.58C123.357 27.0654 123.271 27.6374 123.132 28.296L101.344 28.348V22.888L119.752 22.836L116.32 25.124C116.285 23.668 116.06 22.472 115.644 21.536C115.228 20.5654 114.604 19.8374 113.772 19.352C112.975 18.832 111.987 18.572 110.808 18.572C109.56 18.572 108.468 18.8667 107.532 19.456C106.631 20.0107 105.92 20.808 105.4 21.848C104.915 22.888 104.672 24.1534 104.672 25.644C104.672 27.1347 104.932 28.4174 105.452 29.492C106.007 30.532 106.769 31.3467 107.74 31.936C108.745 32.4907 109.924 32.768 111.276 32.768C112.524 32.768 113.651 32.56 114.656 32.144C115.661 31.6934 116.545 31.0347 117.308 30.168L121.676 34.536C120.428 35.992 118.92 37.084 117.152 37.812C115.384 38.54 113.443 38.904 111.328 38.904ZM132.328 38.904C130.976 38.904 129.85 38.436 128.948 37.5C128.047 36.564 127.596 35.4374 127.596 34.12C127.596 32.7334 128.047 31.5894 128.948 30.688C129.85 29.752 130.976 29.284 132.328 29.284C133.715 29.284 134.842 29.752 135.708 30.688C136.61 31.5894 137.06 32.7334 137.06 34.12C137.06 35.4374 136.61 36.564 135.708 37.5C134.842 38.436 133.715 38.904 132.328 38.904ZM143.349 49.668C141.512 49.668 139.952 49.356 138.669 48.732C137.386 48.1427 136.26 47.2934 135.289 46.184L140.229 41.244C140.61 41.6947 141.009 42.0067 141.425 42.18C141.806 42.388 142.257 42.492 142.777 42.492C143.54 42.492 144.164 42.2667 144.649 41.816C145.169 41.3654 145.429 40.672 145.429 39.736V13.06H153.385V39.632C153.385 41.6774 152.952 43.4454 152.085 44.936C151.218 46.4267 150.022 47.588 148.497 48.42C147.006 49.252 145.29 49.668 143.349 49.668ZM149.485 9.57603C148.237 9.57603 147.197 9.16003 146.365 8.32803C145.568 7.46136 145.169 6.42136 145.169 5.20803C145.169 3.96003 145.568 2.92003 146.365 2.08803C147.197 1.25603 148.237 0.84003 149.485 0.84003C150.733 0.84003 151.756 1.25603 152.553 2.08803C153.35 2.92003 153.749 3.96003 153.749 5.20803C153.749 6.42136 153.35 7.46136 152.553 8.32803C151.756 9.16003 150.733 9.57603 149.485 9.57603ZM168.228 38.956C166.737 38.956 165.264 38.7654 163.808 38.384C162.386 38.0027 161.052 37.4654 159.804 36.772C158.59 36.044 157.55 35.212 156.684 34.276L161.208 29.7C162.04 30.6014 163.028 31.312 164.172 31.832C165.316 32.3174 166.564 32.56 167.916 32.56C168.852 32.56 169.562 32.4214 170.048 32.144C170.568 31.8667 170.828 31.4854 170.828 31C170.828 30.376 170.516 29.908 169.892 29.596C169.302 29.2494 168.54 28.9547 167.604 28.712C166.668 28.4347 165.68 28.14 164.64 27.828C163.6 27.516 162.612 27.0827 161.676 26.528C160.74 25.9734 159.977 25.2107 159.388 24.24C158.798 23.2347 158.504 21.9694 158.504 20.444C158.504 18.8147 158.92 17.4107 159.752 16.232C160.584 15.0187 161.762 14.0654 163.288 13.372C164.813 12.6787 166.598 12.332 168.644 12.332C170.793 12.332 172.769 12.7134 174.572 13.476C176.409 14.204 177.9 15.296 179.044 16.752L174.52 21.328C173.722 20.392 172.821 19.7334 171.816 19.352C170.845 18.9707 169.892 18.78 168.956 18.78C168.054 18.78 167.378 18.9187 166.928 19.196C166.477 19.4387 166.252 19.8027 166.252 20.288C166.252 20.808 166.546 21.224 167.136 21.536C167.725 21.848 168.488 22.1254 169.424 22.368C170.36 22.6107 171.348 22.9054 172.388 23.252C173.428 23.5987 174.416 24.0667 175.352 24.656C176.288 25.2454 177.05 26.0427 177.64 27.048C178.229 28.0187 178.524 29.3014 178.524 30.896C178.524 33.3574 177.588 35.316 175.716 36.772C173.878 38.228 171.382 38.956 168.228 38.956Z" fill="#C2C7CC"/>
</svg>
