<svg width="19" height="18" viewBox="0 0 19 18" fill="none" xmlns="http://www.w3.org/2000/svg">
<path fill-rule="evenodd" clip-rule="evenodd" d="M5.9099 0.343881C6.83645 0.301227 7.13187 0.291748 9.49208 0.291748C11.8523 0.291748 12.1477 0.302017 13.0735 0.343881C13.9992 0.385746 14.6311 0.533456 15.1841 0.747518C15.7631 0.96632 16.2884 1.30834 16.7228 1.75069C17.1651 2.18434 17.5064 2.70883 17.7244 3.28861C17.9392 3.84154 18.0862 4.47346 18.1288 5.39764C18.1715 6.32577 18.1809 6.62119 18.1809 8.98061C18.1809 11.3408 18.1707 11.6362 18.1288 12.5628C18.0869 13.487 17.9392 14.1189 17.7244 14.6718C17.5064 15.2517 17.1646 15.777 16.7228 16.2113C16.2884 16.6537 15.7631 16.9949 15.1841 17.2129C14.6311 17.4278 13.9992 17.5747 13.0751 17.6173C12.1477 17.66 11.8523 17.6695 9.49208 17.6695C7.13187 17.6695 6.83645 17.6592 5.9099 17.6173C4.98572 17.5755 4.35381 17.4278 3.80088 17.2129C3.22103 16.9949 2.69567 16.6531 2.26137 16.2113C1.81933 15.7774 1.47725 15.2523 1.25899 14.6726C1.04493 14.1197 0.89801 13.4878 0.855356 12.5636C0.812701 11.6354 0.803223 11.34 0.803223 8.98061C0.803223 6.6204 0.813491 6.32498 0.855356 5.39922C0.89722 4.47346 1.04493 3.84154 1.25899 3.28861C1.47758 2.7089 1.81991 2.1838 2.26216 1.7499C2.69585 1.30795 3.22068 0.96588 3.80009 0.747518C4.35302 0.533456 4.98493 0.386536 5.90911 0.343881H5.9099ZM13.0032 1.90788C12.0869 1.86601 11.812 1.85732 9.49208 1.85732C7.17216 1.85732 6.89727 1.86601 5.98099 1.90788C5.13343 1.94658 4.67371 2.08797 4.36724 2.20725C3.96202 2.36523 3.67213 2.55243 3.36802 2.85654C3.07974 3.137 2.85789 3.47841 2.71872 3.85576C2.59945 4.16224 2.45806 4.62196 2.41935 5.46952C2.37749 6.3858 2.3688 6.66068 2.3688 8.98061C2.3688 11.3005 2.37749 11.5754 2.41935 12.4917C2.45806 13.3393 2.59945 13.799 2.71872 14.1055C2.85774 14.4822 3.0797 14.8243 3.36802 15.1047C3.64843 15.393 3.99045 15.6149 4.36724 15.754C4.67371 15.8732 5.13343 16.0146 5.98099 16.0533C6.89727 16.0952 7.17137 16.1039 9.49208 16.1039C11.8128 16.1039 12.0869 16.0952 13.0032 16.0533C13.8507 16.0146 14.3105 15.8732 14.6169 15.754C15.0221 15.596 15.312 15.4088 15.6161 15.1047C15.9045 14.8243 16.1264 14.4822 16.2654 14.1055C16.3847 13.799 16.5261 13.3393 16.5648 12.4917C16.6067 11.5754 16.6154 11.3005 16.6154 8.98061C16.6154 6.66068 16.6067 6.3858 16.5648 5.46952C16.5261 4.62196 16.3847 4.16224 16.2654 3.85576C16.1075 3.45054 15.9203 3.16065 15.6161 2.85654C15.3357 2.56829 14.9943 2.34643 14.6169 2.20725C14.3105 2.08797 13.8507 1.94658 13.0032 1.90788ZM8.38228 11.6591C9.00208 11.9172 9.69223 11.952 10.3348 11.7577C10.9775 11.5634 11.5327 11.152 11.9057 10.5938C12.2787 10.0356 12.4463 9.36519 12.38 8.69712C12.3136 8.02905 12.0174 7.40474 11.5419 6.93083C11.2387 6.62788 10.8722 6.39592 10.4687 6.25163C10.0651 6.10735 9.6346 6.05433 9.20811 6.09639C8.78162 6.13846 8.36976 6.27456 8.00218 6.49491C7.63461 6.71525 7.32046 7.01435 7.08235 7.37068C6.84424 7.72701 6.6881 8.1317 6.62517 8.55561C6.56223 8.97953 6.59407 9.41212 6.71839 9.82226C6.84271 10.2324 7.05642 10.6099 7.34413 10.9275C7.63185 11.2451 7.9864 11.495 8.38228 11.6591ZM6.33408 5.8226C6.74879 5.40789 7.24113 5.07892 7.78298 4.85448C8.32483 4.63003 8.90559 4.51451 9.49208 4.51451C10.0786 4.51451 10.6593 4.63003 11.2012 4.85447C11.743 5.07892 12.2354 5.40789 12.6501 5.8226C13.0648 6.23732 13.3938 6.72966 13.6182 7.27151C13.8427 7.81336 13.9582 8.39411 13.9582 8.98061C13.9582 9.5671 13.8427 10.1479 13.6182 10.6897C13.3938 11.2316 13.0648 11.7239 12.6501 12.1386C11.8125 12.9762 10.6766 13.4467 9.49208 13.4467C8.3076 13.4467 7.17163 12.9762 6.33408 12.1386C5.49652 11.3011 5.02599 10.1651 5.02599 8.98061C5.02599 7.79613 5.49652 6.66016 6.33408 5.8226ZM14.9487 5.17963C15.0515 5.08268 15.1337 4.9661 15.1906 4.83679C15.2475 4.70748 15.2779 4.56806 15.28 4.4268C15.282 4.28554 15.2557 4.1453 15.2026 4.01438C15.1495 3.88346 15.0707 3.76454 14.9708 3.66464C14.8709 3.56474 14.7519 3.4859 14.621 3.43279C14.4901 3.37967 14.3499 3.35337 14.2086 3.35543C14.0673 3.35749 13.9279 3.38787 13.7986 3.44477C13.6693 3.50168 13.5527 3.58395 13.4558 3.68672C13.2672 3.88659 13.164 4.15207 13.168 4.4268C13.172 4.70153 13.2829 4.96389 13.4772 5.15818C13.6715 5.35246 13.9339 5.46338 14.2086 5.46739C14.4833 5.47139 14.7488 5.36817 14.9487 5.17963Z" fill="#1877F2"/>
</svg>
