<svg width="46" height="46" viewBox="0 0 46 46" fill="none" xmlns="http://www.w3.org/2000/svg">
<g clip-path="url(#clip0_561_13588)">
<g clip-path="url(#clip1_561_13588)">
<g clip-path="url(#clip2_561_13588)">
<path d="M45.5277 23.1833C45.5277 10.8396 35.5212 0.833008 23.1774 0.833008C10.8337 0.833008 0.827148 10.8396 0.827148 23.1833C0.827148 35.527 10.8337 45.5336 23.1774 45.5336C35.5212 45.5336 45.5277 35.527 45.5277 23.1833Z" fill="#1877F2"/>
<mask id="mask0_561_13588" style="mask-type:alpha" maskUnits="userSpaceOnUse" x="11" y="12" width="23" height="23">
<path d="M33.9951 12.2588H11.9951V34.2588H33.9951V12.2588Z" fill="#D9D9D9"/>
</mask>
<g mask="url(#mask0_561_13588)">
<path d="M18.1368 29.9501C17.9687 29.782 17.8848 29.5681 17.8848 29.3084C17.8848 29.0487 17.9687 28.8348 18.1368 28.6667L22.0785 24.7251V18.5605L20.3598 20.2792C20.1917 20.4472 19.9817 20.5313 19.73 20.5313C19.4777 20.5313 19.2598 20.4397 19.0764 20.2563C18.8931 20.0729 18.8014 19.8551 18.8014 19.6027C18.8014 19.351 18.8931 19.1333 19.0764 18.9501L22.3535 15.6729C22.4452 15.5813 22.5445 15.5162 22.6514 15.4777C22.7583 15.4398 22.8729 15.4209 22.9952 15.4209C23.1174 15.4209 23.232 15.4398 23.3389 15.4777C23.4459 15.5162 23.5452 15.5813 23.6368 15.6729L26.9598 18.9959C27.1278 19.164 27.2158 19.3738 27.2238 19.6256C27.2311 19.878 27.1431 20.0959 26.9598 20.2792C26.7764 20.4625 26.5589 20.5542 26.3071 20.5542C26.0547 20.5542 25.8368 20.4625 25.6535 20.2792L23.9118 18.5605V25.4583L19.3972 29.9729C19.2292 30.141 19.0229 30.2251 18.7785 30.2251C18.5341 30.2251 18.3202 30.1333 18.1368 29.9501ZM26.5702 29.9729L24.2785 27.7042L25.5848 26.3979L27.8764 28.7125C28.0445 28.8806 28.1285 29.0868 28.1285 29.3313C28.1285 29.5757 28.0368 29.7897 27.8535 29.9729C27.6855 30.141 27.4755 30.2251 27.2238 30.2251C26.9713 30.2251 26.7535 30.141 26.5702 29.9729Z" fill="white"/>
</g>
</g>
</g>
</g>
<defs>
<clipPath id="clip0_561_13588">
<rect width="45.6318" height="45.6318" fill="white" transform="translate(0.000244141 0.368164)"/>
</clipPath>
<clipPath id="clip1_561_13588">
<rect width="45.6318" height="45.6318" fill="white" transform="translate(0.000488281 0.368164)"/>
</clipPath>
<clipPath id="clip2_561_13588">
<rect width="45.6318" height="44.7006" fill="white" transform="translate(0.000732422 0.833008)"/>
</clipPath>
</defs>
</svg>
