<svg width="46" height="46" viewBox="0 0 46 46" fill="none" xmlns="http://www.w3.org/2000/svg">
<g clip-path="url(#clip0_560_13573)">
<g clip-path="url(#clip1_560_13573)">
<g clip-path="url(#clip2_560_13573)">
<path d="M45.5277 23.1833C45.5277 10.8396 35.5212 0.833008 23.1774 0.833008C10.8337 0.833008 0.827148 10.8396 0.827148 23.1833C0.827148 35.527 10.8337 45.5336 23.1774 45.5336C35.5212 45.5336 45.5277 35.527 45.5277 23.1833Z" fill="#1877F2"/>
<mask id="mask0_560_13573" style="mask-type:alpha" maskUnits="userSpaceOnUse" x="11" y="12" width="23" height="23">
<path d="M33.9951 12.2588H11.9951V34.2588H33.9951V12.2588Z" fill="#D9D9D9"/>
</mask>
<g mask="url(#mask0_560_13573)">
<mask id="mask1_560_13573" style="mask-type:alpha" maskUnits="userSpaceOnUse" x="13" y="13" width="20" height="20">
<path d="M32.4814 13.499H13.4353V32.5451H32.4814V13.499Z" fill="#D9D9D9"/>
</mask>
<g mask="url(#mask1_560_13573)">
<path d="M23.3554 22.9819C23.7389 22.5586 24.0333 22.0758 24.2386 21.5336C24.4434 20.9913 24.5458 20.4291 24.5458 19.8472C24.5458 19.2653 24.4434 18.7031 24.2386 18.1608C24.0333 17.6186 23.7389 17.1358 23.3554 16.7125C24.149 16.8183 24.8103 17.1688 25.3393 17.764C25.8683 18.3592 26.1329 19.0536 26.1329 19.8472C26.1329 20.6408 25.8683 21.3352 25.3393 21.9304C24.8103 22.5256 24.149 22.8761 23.3554 22.9819ZM27.3432 29.3702C27.4622 29.2776 27.5547 29.1618 27.6209 29.0226C27.687 28.884 27.7201 28.7288 27.7201 28.5568V26.9895C27.7201 26.5133 27.6142 26.0604 27.4027 25.6309C27.191 25.2007 26.9133 24.8204 26.5694 24.4897C27.244 24.7278 27.869 25.0351 28.4446 25.4118C29.0197 25.789 29.3073 26.3149 29.3073 26.9895V28.5767C29.3073 28.8015 29.2311 28.9899 29.0787 29.1417C28.9268 29.2941 28.7385 29.3702 28.5137 29.3702H27.3432ZM30.1009 23.8151C29.876 23.8151 29.6876 23.7389 29.5358 23.5866C29.3835 23.4348 29.3073 23.2464 29.3073 23.0215V22.228H28.5137C28.2888 22.228 28.1005 22.1518 27.9487 21.9994C27.7963 21.8476 27.7201 21.6592 27.7201 21.4344C27.7201 21.2095 27.7963 21.0209 27.9487 20.8685C28.1005 20.7167 28.2888 20.6408 28.5137 20.6408H29.3073V19.8472C29.3073 19.6224 29.3835 19.4337 29.5358 19.2814C29.6876 19.1296 29.876 19.0536 30.1009 19.0536C30.3257 19.0536 30.514 19.1296 30.6659 19.2814C30.8183 19.4337 30.8945 19.6224 30.8945 19.8472V20.6408H31.688C31.9129 20.6408 32.1012 20.7167 32.2531 20.8685C32.4054 21.0209 32.4816 21.2095 32.4816 21.4344C32.4816 21.6592 32.4054 21.8476 32.2531 21.9994C32.1012 22.1518 31.9129 22.228 31.688 22.228H30.8945V23.0215C30.8945 23.2464 30.8183 23.4348 30.6659 23.5866C30.514 23.7389 30.3257 23.8151 30.1009 23.8151ZM19.7842 23.0215C18.9113 23.0215 18.164 22.7107 17.5424 22.0891C16.9207 21.4675 16.6099 20.7201 16.6099 19.8472C16.6099 18.9743 16.9207 18.2269 17.5424 17.6053C18.164 16.9837 18.9113 16.6729 19.7842 16.6729C20.6572 16.6729 21.4044 16.9837 22.0261 17.6053C22.6477 18.2269 22.9586 18.9743 22.9586 19.8472C22.9586 20.7201 22.6477 21.4675 22.0261 22.0891C21.4044 22.7107 20.6572 23.0215 19.7842 23.0215ZM14.2291 29.3702C14.0042 29.3702 13.8159 29.2941 13.6641 29.1417C13.5117 28.9899 13.4355 28.8015 13.4355 28.5767V27.1482C13.4355 26.6985 13.5514 26.285 13.7831 25.9078C14.0143 25.5311 14.3217 25.2436 14.7053 25.0452C15.5253 24.6351 16.3586 24.3275 17.2051 24.1222C18.0515 23.9175 18.9113 23.8151 19.7842 23.8151C20.6572 23.8151 21.5169 23.9175 22.3634 24.1222C23.2098 24.3275 24.0431 24.6351 24.8632 25.0452C25.2467 25.2436 25.5541 25.5311 25.7853 25.9078C26.0171 26.285 26.1329 26.6985 26.1329 27.1482V28.5767C26.1329 28.8015 26.057 28.9899 25.9052 29.1417C25.7528 29.2941 25.5642 29.3702 25.3393 29.3702H14.2291ZM19.7842 21.4344C20.2207 21.4344 20.5945 21.2788 20.9056 20.9677C21.2161 20.6572 21.3714 20.2837 21.3714 19.8472C21.3714 19.4107 21.2161 19.0372 20.9056 18.7267C20.5945 18.4156 20.2207 18.26 19.7842 18.26C19.3478 18.26 18.9742 18.4156 18.6637 18.7267C18.3526 19.0372 18.1971 19.4107 18.1971 19.8472C18.1971 20.2837 18.3526 20.6572 18.6637 20.9677C18.9742 21.2788 19.3478 21.4344 19.7842 21.4344ZM15.0227 27.7831H24.5458V27.1482C24.5458 27.0027 24.5095 26.8704 24.437 26.7514C24.364 26.6324 24.268 26.5398 24.149 26.4736C23.4347 26.1165 22.7138 25.8485 21.9864 25.6697C21.259 25.4914 20.5249 25.4023 19.7842 25.4023C19.0435 25.4023 18.3094 25.4914 17.582 25.6697C16.8546 25.8485 16.1337 26.1165 15.4195 26.4736C15.3005 26.5398 15.2047 26.6324 15.1322 26.7514C15.0592 26.8704 15.0227 27.0027 15.0227 27.1482V27.7831Z" fill="white"/>
</g>
</g>
</g>
</g>
</g>
<defs>
<clipPath id="clip0_560_13573">
<rect width="45.6318" height="45.6318" fill="white" transform="translate(0.000244141 0.368164)"/>
</clipPath>
<clipPath id="clip1_560_13573">
<rect width="45.6318" height="45.6318" fill="white" transform="translate(0.000488281 0.368164)"/>
</clipPath>
<clipPath id="clip2_560_13573">
<rect width="45.6318" height="44.7006" fill="white" transform="translate(0.000732422 0.833008)"/>
</clipPath>
</defs>
</svg>
