<svg width="28" height="29" viewBox="0 0 28 29" fill="none" xmlns="http://www.w3.org/2000/svg">
<path d="M23.3048 13.6519H25.6218C25.6218 7.70873 21.1349 3.22644 15.1836 3.22644V5.54347C19.8895 5.54347 23.3048 8.95298 23.3048 13.6519Z" fill="white"/>
<path d="M15.1944 10.1775C17.6307 10.1775 18.6699 11.2167 18.6699 13.653H20.9869C20.9869 9.91683 18.9306 7.86047 15.1944 7.86047V10.1775ZM19.1588 16.4833C18.9362 16.281 18.6437 16.1731 18.343 16.1823C18.0423 16.1916 17.757 16.3174 17.5473 16.5331L14.775 19.3842C14.1077 19.2568 12.7661 18.8386 11.3852 17.4611C10.0042 16.079 9.58599 14.7339 9.46203 14.0713L12.3108 11.2978C12.5268 11.0882 12.6527 10.8029 12.662 10.5021C12.6713 10.2014 12.5632 9.90877 12.3606 9.68629L8.07992 4.97925C7.87723 4.75607 7.59552 4.62069 7.29463 4.60187C6.99373 4.58305 6.69735 4.68227 6.46843 4.87845L3.95445 7.03445C3.75416 7.23547 3.63461 7.50301 3.61848 7.78633C3.6011 8.07595 3.26977 14.9367 8.58967 20.2589C13.2307 24.8987 19.0441 25.2382 20.6452 25.2382C20.8792 25.2382 21.0228 25.2312 21.0611 25.2289C21.3444 25.2131 21.6117 25.093 21.8118 24.8918L23.9666 22.3767C24.163 22.1479 24.2624 21.8516 24.2438 21.5507C24.2252 21.2498 24.09 20.968 23.867 20.7652L19.1588 16.4833Z" fill="white"/>
</svg>
